<?xml version="1.0" encoding="UTF-8"?>
<!-- Generator: Adobe Illustrator 27.0.1, SVG Export Plug-In . SVG Version: 6.00 Build 0)  -->
<svg xmlns="http://www.w3.org/2000/svg" xmlns:xlink="http://www.w3.org/1999/xlink" version="1.1" id="Layer_1" x="0px" y="0px" viewBox="0 0 841.89 255.88" style="enable-background:new 0 0 841.89 255.88;" xml:space="preserve">
<style type="text/css">
	.st0{fill:#FFFFFF;}
	.st1{fill-rule:evenodd;clip-rule:evenodd;fill:#FF9900;}
	.st2{fill:#FF9900;}
</style>
<g>
	<path class="st0" d="M54.01,190.36c-10.81,0-19.03-2.86-24.66-8.58c-5.63-5.72-8.44-14.08-8.44-25.08c0-10.81,2.94-19.2,8.82-25.17   c5.88-5.97,14.06-8.96,24.56-8.96c5.03,0,9.74,0.66,14.14,1.98c1,0.32,1.68,0.74,2.03,1.27c0.34,0.53,0.52,1.4,0.52,2.59v7.92   c0,1.7-0.66,2.55-1.98,2.55c-0.32,0-1.1-0.16-2.36-0.47c-3.08-0.69-6.16-1.04-9.24-1.04c-5.78,0-10.15,1.52-13.11,4.57   c-2.96,3.05-4.43,7.56-4.43,13.53v2.07c0,5.85,1.43,10.31,4.29,13.39c2.86,3.08,7.09,4.62,12.68,4.62c3.9,0,7.54-0.41,10.94-1.23   c1-0.25,1.73-0.38,2.17-0.38c1.32,0,1.98,0.85,1.98,2.55v7.92c0,1.2-0.17,2.06-0.52,2.59c-0.35,0.53-1.02,0.96-2.03,1.27   C65.1,189.66,59.98,190.36,54.01,190.36z"></path>
	<path class="st0" d="M109.73,190.73c-6.85,0-12.76-1.43-17.73-4.29c-4.97-2.86-8.74-6.87-11.31-12.02   c-2.58-5.15-3.87-11.19-3.87-18.1c0-7.1,1.35-13.22,4.05-18.34c2.7-5.12,6.52-9.04,11.46-11.74c4.93-2.7,10.73-4.05,17.4-4.05   c6.85,0,12.76,1.42,17.73,4.24c4.96,2.83,8.75,6.82,11.36,11.97c2.61,5.16,3.91,11.22,3.91,18.2c0,7.1-1.35,13.23-4.05,18.39   c-2.7,5.16-6.54,9.07-11.5,11.74C122.21,189.4,116.39,190.73,109.73,190.73z M109.73,176.31c4.78,0,8.38-1.67,10.8-5   c2.42-3.33,3.63-8.23,3.63-14.71c0-6.6-1.23-11.58-3.68-14.94c-2.45-3.36-6.03-5.04-10.75-5.04s-8.28,1.67-10.7,5   c-2.42,3.33-3.63,8.24-3.63,14.71c0,6.54,1.21,11.5,3.63,14.9C101.45,174.61,105.02,176.31,109.73,176.31z"></path>
	<path class="st0" d="M157.63,189.13c-1.01,0-1.73-0.22-2.17-0.66c-0.44-0.44-0.66-1.16-0.66-2.17v-59.68   c0-1.07,0.22-1.81,0.66-2.22c0.44-0.41,1.16-0.61,2.17-0.61h14.14c0.88,0,1.56,0.14,2.03,0.42c0.47,0.28,0.93,0.9,1.37,1.84   l14.8,33.19l14.99-33.19c0.44-0.94,0.9-1.56,1.37-1.84c0.47-0.28,1.15-0.42,2.03-0.42h13.48c1.07,0,1.81,0.2,2.22,0.61   c0.41,0.41,0.61,1.15,0.61,2.22v59.68c0,1.01-0.21,1.73-0.61,2.17c-0.41,0.44-1.15,0.66-2.22,0.66h-9.99   c-1.01,0-1.73-0.22-2.17-0.66c-0.44-0.44-0.66-1.16-0.66-2.17v-37.53l-10.28,23.19c-0.44,0.94-0.9,1.56-1.37,1.84   c-0.47,0.28-1.15,0.42-2.03,0.42h-11.22c-0.88,0-1.56-0.14-2.03-0.42c-0.47-0.28-0.93-0.9-1.37-1.84l-10.28-23.19v37.53   c0,1.01-0.2,1.73-0.61,2.17c-0.41,0.44-1.15,0.66-2.22,0.66H157.63z"></path>
	<path class="st0" d="M241.45,189.13c-1.01,0-1.73-0.22-2.17-0.66c-0.44-0.44-0.66-1.16-0.66-2.17v-59.68   c0-1.07,0.22-1.81,0.66-2.22c0.44-0.41,1.16-0.61,2.17-0.61h14.14c0.88,0,1.56,0.14,2.03,0.42c0.47,0.28,0.93,0.9,1.37,1.84   l14.8,33.19l14.99-33.19c0.44-0.94,0.9-1.56,1.37-1.84c0.47-0.28,1.15-0.42,2.03-0.42h13.48c1.07,0,1.81,0.2,2.22,0.61   c0.41,0.41,0.61,1.15,0.61,2.22v59.68c0,1.01-0.21,1.73-0.61,2.17c-0.41,0.44-1.15,0.66-2.22,0.66h-9.99   c-1.01,0-1.73-0.22-2.17-0.66c-0.44-0.44-0.66-1.16-0.66-2.17v-37.53l-10.28,23.19c-0.44,0.94-0.9,1.56-1.37,1.84   c-0.47,0.28-1.15,0.42-2.03,0.42h-11.22c-0.88,0-1.56-0.14-2.03-0.42c-0.47-0.28-0.93-0.9-1.37-1.84l-10.28-23.19v37.53   c0,1.01-0.2,1.73-0.61,2.17c-0.41,0.44-1.15,0.66-2.22,0.66H241.45z"></path>
	<path class="st0" d="M350.63,190.73c-9.05,0-16.08-2.22-21.07-6.65c-5-4.43-7.5-10.73-7.5-18.91v-38.56c0-1.07,0.22-1.81,0.66-2.22   c0.44-0.41,1.16-0.61,2.17-0.61h12.54c1.07,0,1.81,0.2,2.22,0.61c0.41,0.41,0.61,1.15,0.61,2.22v39.13c0,3.46,0.88,6.08,2.64,7.87   c1.76,1.79,4.34,2.69,7.73,2.69c6.98,0,10.47-3.52,10.47-10.56v-39.13c0-1.07,0.22-1.81,0.66-2.22c0.44-0.41,1.16-0.61,2.17-0.61   h12.54c1.07,0,1.81,0.2,2.22,0.61c0.41,0.41,0.61,1.15,0.61,2.22v38.66c0,8.11-2.51,14.38-7.54,18.81   C366.72,188.52,359.69,190.73,350.63,190.73z"></path>
	<path class="st0" d="M395.7,189.13c-1.01,0-1.73-0.22-2.17-0.66c-0.44-0.44-0.66-1.16-0.66-2.17v-59.68c0-1.07,0.22-1.81,0.66-2.22   c0.44-0.41,1.16-0.61,2.17-0.61H409c1.07,0,1.87,0.16,2.4,0.47c0.53,0.31,1.02,0.85,1.46,1.6l21.78,39.22v-38.47   c0-1.07,0.22-1.81,0.66-2.22c0.44-0.41,1.16-0.61,2.17-0.61h9.99c1.07,0,1.81,0.2,2.22,0.61c0.41,0.41,0.61,1.15,0.61,2.22v59.68   c0,1.01-0.21,1.73-0.61,2.17c-0.41,0.44-1.15,0.66-2.22,0.66h-13.29c-1.07,0-1.87-0.16-2.4-0.47c-0.54-0.31-1.02-0.85-1.46-1.6   l-21.78-38.85v38.09c0,1.01-0.21,1.73-0.61,2.17c-0.41,0.44-1.15,0.66-2.21,0.66H395.7z"></path>
	<path class="st0" d="M467.45,189.13c-1.01,0-1.73-0.22-2.17-0.66c-0.44-0.44-0.66-1.16-0.66-2.17v-59.68   c0-1.07,0.22-1.81,0.66-2.22c0.44-0.41,1.16-0.61,2.17-0.61h12.54c1.07,0,1.81,0.2,2.22,0.61c0.41,0.41,0.61,1.15,0.61,2.22v59.68   c0,1.01-0.21,1.73-0.61,2.17c-0.41,0.44-1.15,0.66-2.22,0.66H467.45z"></path>
	<path class="st0" d="M512.81,189.13c-1.01,0-1.73-0.22-2.17-0.66c-0.44-0.44-0.66-1.16-0.66-2.17v-48.27h-16.12   c-1.01,0-1.73-0.22-2.17-0.66c-0.44-0.44-0.66-1.16-0.66-2.17v-8.58c0-1.07,0.22-1.81,0.66-2.22c0.44-0.41,1.16-0.61,2.17-0.61   h50.44c1.07,0,1.81,0.2,2.22,0.61c0.41,0.41,0.61,1.15,0.61,2.22v8.58c0,1.01-0.2,1.73-0.61,2.17c-0.41,0.44-1.15,0.66-2.22,0.66   h-16.12v48.27c0,1.01-0.21,1.73-0.61,2.17c-0.41,0.44-1.15,0.66-2.22,0.66H512.81z"></path>
	<path class="st0" d="M576.73,189.13c-1.01,0-1.73-0.22-2.17-0.66c-0.44-0.44-0.66-1.16-0.66-2.17v-21.78L554.2,128.5   c-0.75-1.32-1.13-2.26-1.13-2.83c0-1.26,0.82-1.89,2.45-1.89h13.39c1,0,1.81,0.19,2.4,0.57c0.6,0.38,1.08,1.01,1.46,1.89   l10.75,25.27l10.94-25.27c0.38-0.88,0.86-1.51,1.46-1.89c0.6-0.38,1.4-0.57,2.4-0.57h12.45c1.63,0,2.45,0.63,2.45,1.89   c0,0.57-0.38,1.51-1.13,2.83l-19.99,36.21v21.59c0,1.01-0.2,1.73-0.61,2.17c-0.41,0.44-1.15,0.66-2.22,0.66H576.73z"></path>
	<path class="st0" d="M642.07,189.13c-1.01,0-1.73-0.22-2.17-0.66c-0.44-0.44-0.66-1.16-0.66-2.17v-59.68   c0-1.07,0.22-1.81,0.66-2.22c0.44-0.41,1.16-0.61,2.17-0.61h22.72c10.06,0,17.85,2.83,23.38,8.49c5.53,5.66,8.3,13.7,8.3,24.14   c0,6.85-1.23,12.75-3.68,17.68c-2.45,4.94-5.96,8.67-10.51,11.22c-4.56,2.55-10.01,3.82-16.36,3.82H642.07z M657.44,175.18h6.22   c9.49,0,14.24-5.97,14.24-17.92v-1.7c0-11.88-4.68-17.82-14.05-17.82h-6.41V175.18z"></path>
	<path class="st0" d="M702.03,189.13c-1.63,0-2.45-0.63-2.45-1.89c0-0.5,0.25-1.45,0.75-2.83l20.84-58.36   c0.31-0.88,0.69-1.48,1.13-1.79c0.44-0.31,1.16-0.47,2.17-0.47h15.09c1,0,1.73,0.16,2.17,0.47c0.44,0.31,0.82,0.91,1.13,1.79   l20.93,58.36c0.5,1.38,0.75,2.33,0.75,2.83c0,1.26-0.82,1.89-2.45,1.89h-14.14c-1.01,0-1.74-0.19-2.22-0.57   c-0.47-0.38-0.86-1.13-1.18-2.26l-2.83-9.81h-20.18l-2.73,9.81c-0.32,1.13-0.71,1.89-1.18,2.26c-0.47,0.38-1.21,0.57-2.22,0.57   H702.03z M738.34,163.67l-6.79-24.23l-6.6,24.23H738.34z"></path>
	<path class="st0" d="M783.78,189.13c-1.01,0-1.73-0.22-2.17-0.66c-0.44-0.44-0.66-1.16-0.66-2.17v-21.78l-19.71-36.02   c-0.75-1.32-1.13-2.26-1.13-2.83c0-1.26,0.82-1.89,2.45-1.89h13.39c1,0,1.81,0.19,2.4,0.57c0.6,0.38,1.08,1.01,1.46,1.89   l10.75,25.27l10.94-25.27c0.38-0.88,0.86-1.51,1.46-1.89c0.6-0.38,1.4-0.57,2.4-0.57h12.45c1.63,0,2.45,0.63,2.45,1.89   c0,0.57-0.38,1.51-1.13,2.83l-19.99,36.21v21.59c0,1.01-0.2,1.73-0.61,2.17c-0.41,0.44-1.15,0.66-2.22,0.66H783.78z"></path>
</g>
<g>
	<path class="st0" d="M396.23,45.36c0,1.72,0.17,3.08,0.52,4.1c0.35,1.02,0.84,2.12,1.49,3.29c0.21,0.38,0.32,0.72,0.32,1.04   c0,0.48-0.3,0.94-0.88,1.37l-2.89,1.93c-0.43,0.27-0.83,0.4-1.21,0.4c-0.48,0-0.94-0.21-1.37-0.64c-0.64-0.64-1.19-1.35-1.65-2.13   c-0.46-0.78-0.92-1.67-1.41-2.69c-3.59,4.23-8.09,6.35-13.5,6.35c-3.86,0-6.91-1.1-9.16-3.29c-2.25-2.2-3.37-5.14-3.37-8.84   c0-3.91,1.39-7.06,4.18-9.44c2.78-2.38,6.53-3.58,11.25-3.58c1.55,0,3.17,0.12,4.86,0.36c1.69,0.24,3.44,0.58,5.26,1v-3.37   c0-3.48-0.72-5.93-2.17-7.35c-1.45-1.42-3.94-2.13-7.47-2.13c-1.61,0-3.25,0.2-4.94,0.6c-1.69,0.4-3.33,0.92-4.94,1.57   c-0.75,0.32-1.29,0.52-1.61,0.6c-0.32,0.08-0.56,0.12-0.72,0.12c-0.64,0-0.96-0.48-0.96-1.45v-2.25c0-0.75,0.11-1.29,0.32-1.61   c0.21-0.32,0.64-0.64,1.29-0.96c1.61-0.8,3.54-1.5,5.79-2.09c2.25-0.59,4.63-0.88,7.15-0.88c5.46,0,9.47,1.25,12.01,3.74   c2.54,2.49,3.82,6.25,3.82,11.29V45.36z M377.59,52.35c1.5,0,3.08-0.28,4.74-0.84c1.66-0.56,3.11-1.54,4.34-2.93   c0.75-0.86,1.27-1.83,1.57-2.93c0.29-1.1,0.44-2.42,0.44-3.98v-1.93c-1.34-0.32-2.75-0.57-4.22-0.76c-1.47-0.19-2.91-0.28-4.3-0.28   c-3.05,0-5.33,0.62-6.83,1.85c-1.5,1.23-2.25,3-2.25,5.3c0,2.14,0.56,3.76,1.69,4.86C373.89,51.8,375.5,52.35,377.59,52.35z    M414.47,57.33c-0.8,0-1.39-0.15-1.77-0.44c-0.38-0.29-0.7-0.9-0.96-1.81l-10.77-35.51c-0.27-0.91-0.4-1.53-0.4-1.85   c0-0.75,0.37-1.13,1.12-1.13h4.5c0.86,0,1.46,0.15,1.81,0.44c0.35,0.3,0.66,0.9,0.92,1.81l7.71,30.37l7.15-30.37   c0.21-0.91,0.51-1.51,0.88-1.81c0.37-0.29,0.99-0.44,1.85-0.44h3.7c0.86,0,1.47,0.15,1.85,0.44c0.37,0.3,0.67,0.9,0.88,1.81   l7.23,30.77l7.95-30.77c0.27-0.91,0.57-1.51,0.92-1.81c0.35-0.29,0.95-0.44,1.81-0.44h4.26c0.75,0,1.12,0.38,1.12,1.13   c0,0.21-0.03,0.46-0.08,0.72c-0.05,0.27-0.16,0.64-0.32,1.13l-11.09,35.51c-0.27,0.91-0.59,1.51-0.96,1.81   c-0.38,0.3-0.96,0.44-1.77,0.44h-3.94c-0.86,0-1.47-0.16-1.85-0.48c-0.38-0.32-0.67-0.94-0.88-1.85l-7.15-29.57L421.14,55   c-0.21,0.91-0.51,1.53-0.88,1.85c-0.38,0.32-0.99,0.48-1.85,0.48H414.47z M473.45,58.53c-2.41,0-4.77-0.27-7.07-0.8   c-2.3-0.53-4.07-1.15-5.3-1.85c-0.75-0.43-1.22-0.86-1.41-1.29c-0.19-0.43-0.28-0.86-0.28-1.29v-2.33c0-0.96,0.35-1.45,1.04-1.45   c0.27,0,0.55,0.05,0.84,0.16c0.29,0.11,0.68,0.27,1.17,0.48c1.55,0.7,3.24,1.23,5.06,1.61c1.82,0.38,3.64,0.56,5.46,0.56   c2.89,0,5.13-0.51,6.71-1.53c1.58-1.02,2.37-2.46,2.37-4.34c0-1.29-0.42-2.36-1.25-3.21c-0.83-0.86-2.37-1.66-4.62-2.41l-6.67-2.09   c-3.37-1.07-5.83-2.62-7.35-4.66c-1.53-2.03-2.29-4.26-2.29-6.67c0-1.93,0.41-3.63,1.25-5.1c0.83-1.47,1.93-2.73,3.29-3.78   c1.37-1.04,2.96-1.83,4.78-2.37c1.82-0.53,3.75-0.8,5.79-0.8c1.02,0,2.05,0.07,3.09,0.2c1.04,0.13,2.04,0.31,2.97,0.52   c0.94,0.21,1.81,0.46,2.61,0.72c0.8,0.27,1.45,0.54,1.93,0.8c0.64,0.38,1.1,0.75,1.37,1.13c0.27,0.38,0.4,0.88,0.4,1.53v2.17   c0,0.96-0.35,1.45-1.04,1.45c-0.38,0-0.96-0.19-1.77-0.56c-2.63-1.18-5.57-1.77-8.84-1.77c-2.63,0-4.66,0.43-6.11,1.29   c-1.45,0.86-2.17,2.22-2.17,4.1c0,1.29,0.45,2.37,1.37,3.25c0.91,0.88,2.6,1.73,5.06,2.53l6.51,2.09c3.32,1.07,5.69,2.55,7.11,4.42   c1.42,1.88,2.13,4.02,2.13,6.43c0,1.98-0.4,3.76-1.21,5.34c-0.8,1.58-1.92,2.93-3.33,4.06c-1.42,1.13-3.12,1.98-5.1,2.57   C477.97,58.24,475.81,58.53,473.45,58.53z"></path>
	<g>
		<path class="st1" d="M482.13,81.14c-15.12,11.16-37.03,17.09-55.91,17.09c-26.45,0-50.27-9.78-68.29-26.05    c-1.42-1.28-0.15-3.02,1.55-2.03c19.45,11.32,43.49,18.13,68.33,18.13c16.76,0,35.17-3.48,52.12-10.67    C482.49,76.53,484.63,79.3,482.13,81.14z"></path>
		<path class="st1" d="M488.42,73.96c-1.93-2.48-12.78-1.17-17.65-0.59c-1.48,0.18-1.71-1.11-0.37-2.05    c8.65-6.08,22.83-4.32,24.48-2.29c1.66,2.05-0.44,16.27-8.55,23.05c-1.25,1.04-2.43,0.49-1.88-0.89    C486.27,86.64,490.36,76.44,488.42,73.96z"></path>
	</g>
</g>
<g>
	<line class="st0" x1="261.61" y1="224.23" x2="85.78" y2="224.23"></line>
	<rect x="85.78" y="223.23" class="st0" width="175.83" height="2"></rect>
</g>
<g>
	<line class="st0" x1="755.98" y1="228.23" x2="580.15" y2="228.23"></line>
	<rect x="580.15" y="227.23" class="st0" width="175.83" height="2"></rect>
</g>
<g>
	<path class="st2" d="M340.54,236.03v-22.96h16v4.84h-9.77v4.01h7.95v4.84h-7.95v4.44h9.84v4.84H340.54z"></path>
	<path class="st2" d="M378.44,235.43c-1.81,0.68-3.91,1.03-6.29,1.03c-3.8,0-6.69-1-8.66-3.01c-1.98-2.01-2.96-4.95-2.96-8.81   c0-3.8,1.03-6.75,3.1-8.84c2.06-2.1,4.94-3.15,8.63-3.15c2.03,0,3.99,0.32,5.86,0.96v4.84c-1.85-0.4-3.45-0.6-4.77-0.6   c-2.03,0-3.57,0.54-4.6,1.61s-1.56,2.66-1.56,4.75v0.73c0,2.05,0.5,3.62,1.51,4.7c1,1.08,2.49,1.62,4.46,1.62   c1.5,0,3.27-0.22,5.3-0.66V235.43z"></path>
	<path class="st2" d="M393.38,236.59c-3.18,0-5.65-0.78-7.4-2.34c-1.76-1.56-2.63-3.77-2.63-6.64v-14.54h6.39v14.74   c0,1.21,0.31,2.14,0.93,2.77c0.62,0.63,1.52,0.94,2.72,0.94c2.45,0,3.68-1.24,3.68-3.71v-14.74h6.39v14.58   c0,2.85-0.88,5.05-2.65,6.61C399.03,235.81,396.56,236.59,393.38,236.59z"></path>
	<path class="st2" d="M422.73,236.03l-1.26-4.44h-7.02l-1.19,4.44h-6.76l8.08-22.96h7.06l8.08,22.96H422.73z M415.64,227.08h4.64   l-2.35-8.51L415.64,227.08z"></path>
	<path class="st2" d="M433.9,236.03v-22.96h8.98c3.53,0,6.27,0.99,8.22,2.98c1.94,1.99,2.92,4.82,2.92,8.48   c0,2.41-0.43,4.48-1.29,6.21c-0.86,1.73-2.09,3.05-3.69,3.94s-3.52,1.34-5.75,1.34H433.9z M440.29,217.97v13.15h2.19   c3.33,0,5-2.1,5-6.29v-0.6c0-4.17-1.65-6.26-4.94-6.26H440.29z"></path>
	<path class="st2" d="M470.8,236.59c-2.41,0-4.48-0.5-6.23-1.51c-1.74-1-3.07-2.41-3.97-4.22c-0.91-1.81-1.36-3.93-1.36-6.36   c0-2.5,0.47-4.64,1.42-6.44c0.95-1.8,2.29-3.17,4.02-4.12c1.73-0.95,3.77-1.42,6.11-1.42c2.41,0,4.48,0.5,6.23,1.49   c1.75,0.99,3.08,2.4,3.99,4.21c0.92,1.81,1.38,3.94,1.38,6.39c0,2.5-0.48,4.65-1.42,6.46c-0.95,1.81-2.3,3.19-4.04,4.12   C475.18,236.12,473.14,236.59,470.8,236.59z M470.8,231.52c1.68,0,2.94-0.58,3.79-1.75c0.85-1.17,1.28-2.89,1.28-5.17   c0-2.32-0.43-4.07-1.29-5.25s-2.12-1.77-3.78-1.77s-2.91,0.58-3.76,1.76c-0.85,1.17-1.28,2.89-1.28,5.17c0,2.3,0.42,4.04,1.28,5.23   C467.89,230.92,469.14,231.52,470.8,231.52z"></path>
	<path class="st2" d="M488.29,236.03v-22.96h9.47c2.63,0,4.71,0.67,6.26,2c1.54,1.34,2.32,3.15,2.32,5.45c0,1.35-0.3,2.55-0.91,3.61   c-0.61,1.06-1.46,1.91-2.57,2.55l5.07,9.34h-6.63l-4.04-8.02h-2.92v8.02H488.29z M494.35,223.7h2.72c0.97,0,1.73-0.27,2.27-0.8   c0.54-0.53,0.81-1.29,0.81-2.29c0-2.01-1.05-3.01-3.15-3.01h-2.65V223.7z"></path>
</g>
</svg>
