<svg width="283" height="55" viewBox="0 0 283 55" fill="none" xmlns="http://www.w3.org/2000/svg">
<g clip-path="url(#clip0_1059_4708)">
<path d="M126.463 20.2387C126.032 21.577 124.377 23.4274 120.72 23.4274C118.138 23.4274 116.251 22.6509 115.291 21.1639C114.728 20.2883 114.563 19.6109 114.563 17.9918V6.22852H118.038V17.3309C118.038 18.3718 118.138 18.9831 118.336 19.3466C118.717 20.1066 119.528 20.5196 120.653 20.5196C122.143 20.5196 123.086 19.7926 123.235 18.5535C123.285 18.1901 123.285 17.9422 123.285 17.0501V6.22852H126.744V17.5953C126.744 19.1979 126.728 19.5118 126.479 20.2387H126.463Z" fill="#222222"/>
<path d="M136.939 23.1136V15.0346C136.939 13.6303 136.691 13.2173 135.847 13.2173C135.185 13.2173 134.341 13.6468 133.579 14.3407V23.1301H130.319V14.1259C130.319 13.052 130.17 12.0442 129.889 11.2182L132.785 10.3921C133.083 10.9043 133.248 11.4329 133.248 11.9451C133.728 11.5982 134.142 11.3173 134.688 11.0199C135.35 10.673 136.194 10.4912 136.923 10.4912C138.313 10.4912 139.521 11.2182 139.918 12.2921C140.084 12.7547 140.167 13.2833 140.167 14.0599V23.1467H136.956L136.939 23.1136Z" fill="#222222"/>
<path d="M145.413 9.26855C144.321 9.26855 143.411 8.37639 143.411 7.25292C143.411 6.12946 144.337 5.2373 145.446 5.2373C146.555 5.2373 147.416 6.12946 147.416 7.25292C147.416 8.37639 146.522 9.26855 145.397 9.26855H145.413ZM143.791 23.1135V10.9042L147.052 10.392V23.1135H143.791Z" fill="#222222"/>
<path d="M155.757 23.1135H153.059L148.541 10.871L151.868 10.458L153.672 16.0588C153.937 16.8849 154.301 18.2396 154.466 19.0492C154.566 18.3222 154.83 17.1327 155.228 15.8936L156.899 10.6728H160.309L155.757 23.0969V23.1135Z" fill="#222222"/>
<path d="M164.446 17.9092V18.0083C164.446 19.9248 165.39 21.0152 167.078 21.0152C168.203 21.0152 169.246 20.6022 170.239 19.7761L171.497 21.7091C170.057 22.8822 168.551 23.4274 166.796 23.4274C163.221 23.4274 160.904 20.8996 160.904 17.0005C160.904 14.7701 161.368 13.2832 162.46 12.0771C163.486 10.9371 164.728 10.4084 166.383 10.4084C167.823 10.4084 169.18 10.8876 169.974 11.7136C171.116 12.8867 171.629 14.5553 171.629 17.1492V17.9092H164.43H164.446ZM168.269 15.3814C168.269 14.4562 168.17 13.9771 167.889 13.5145C167.574 13.0354 167.111 12.7875 166.449 12.7875C165.208 12.7875 164.496 13.7623 164.496 15.4805V15.5301H168.269V15.3814Z" fill="#222222"/>
<path d="M180.401 13.5146C180.086 13.3494 179.822 13.2667 179.458 13.2667C178.729 13.2667 178.067 13.6137 177.455 14.3076V23.097H174.194V14.7867C174.194 13.1181 173.996 11.8459 173.731 11.152L176.644 10.3755C176.942 10.8877 177.107 11.4494 177.157 12.1433C177.869 11.2016 178.862 10.3755 180.07 10.3755C180.55 10.3755 180.782 10.4251 181.278 10.6398L180.384 13.498L180.401 13.5146Z" fill="#222222"/>
<path d="M186.425 23.4936C184.886 23.4936 183.214 23.0145 181.394 22.0563L182.569 19.6772C183.562 20.2885 185.3 21.0815 186.707 21.0815C187.633 21.0815 188.362 20.4702 188.362 19.6772C188.362 18.8346 187.749 18.3885 186.442 18.1407L184.985 17.8763C184.158 17.7276 183.132 17.1494 182.701 16.6207C182.271 16.092 181.99 15.1833 181.99 14.3903C181.99 11.9616 183.91 10.3425 186.806 10.3425C188.809 10.3425 190.116 10.9538 191.258 11.5156L190.182 13.6964C188.941 13.0686 188.047 12.8042 187.12 12.8042C186.194 12.8042 185.532 13.2834 185.532 14.0103C185.532 14.6381 185.945 14.9851 187.087 15.2659L188.593 15.6624C190.133 16.0424 190.629 16.505 191.076 17.0668C191.539 17.645 191.755 18.3554 191.755 19.1815C191.755 21.7589 189.62 23.5101 186.425 23.5101V23.4936Z" fill="#222222"/>
<path d="M195.843 9.26855C194.75 9.26855 193.84 8.37639 193.84 7.25292C193.84 6.12946 194.767 5.2373 195.876 5.2373C196.985 5.2373 197.845 6.12946 197.845 7.25292C197.845 8.37639 196.951 9.26855 195.826 9.26855H195.843ZM194.204 23.1135V10.9042L197.465 10.392V23.1135H194.204Z" fill="#222222"/>
<path d="M208.603 23.1136C208.504 22.9153 208.454 22.717 208.404 22.3866C207.593 23.097 206.65 23.4275 205.541 23.4275C202.38 23.4275 200.377 20.9823 200.377 17.1163C200.377 13.2502 202.546 10.5572 205.707 10.5572C206.6 10.5572 207.312 10.772 207.924 11.2677C207.875 11.0033 207.825 10.1442 207.825 9.41725V5.13818L211.069 5.65035V18.5701C211.069 21.6266 211.317 22.6179 211.533 23.1136H208.62H208.603ZM207.875 13.9607C207.262 13.432 206.683 13.1676 206.104 13.1676C204.647 13.1676 204.019 14.3737 204.019 17.1493C204.019 19.9249 204.581 20.7014 206.286 20.7014C206.898 20.7014 207.577 20.2884 207.891 19.9084V13.9772L207.875 13.9607Z" fill="#222222"/>
<path d="M223.035 23.7414C222.274 23.4275 221.595 22.8658 221.281 22.238C221.033 22.4858 220.768 22.7171 220.519 22.8988C219.907 23.3284 219.03 23.5762 218.02 23.5762C215.256 23.5762 213.734 22.1719 213.734 19.6937C213.734 16.7859 215.753 15.4146 219.709 15.4146C219.957 15.4146 220.172 15.4146 220.437 15.4311V14.919C220.437 13.5312 220.172 13.0686 218.98 13.0686C217.938 13.0686 216.713 13.5807 215.389 14.4729L213.999 12.1434C214.661 11.7303 215.141 11.4825 216.018 11.119C217.242 10.6069 218.285 10.3921 219.427 10.3921C221.513 10.3921 222.952 11.1686 223.432 12.5564C223.598 13.0686 223.681 13.4486 223.648 14.7868L223.581 18.9667C223.565 20.3215 223.648 20.9163 224.756 21.7258L223.035 23.7249V23.7414ZM220.271 17.6781C218.004 17.6781 217.226 18.0911 217.226 19.578C217.226 20.5528 217.838 21.1971 218.666 21.1971C219.278 21.1971 219.891 20.8832 220.371 20.3545L220.42 17.6781H220.271Z" fill="#222222"/>
<path d="M234.786 23.1136C234.687 22.9153 234.637 22.717 234.587 22.3866C233.776 23.097 232.833 23.4275 231.724 23.4275C228.563 23.4275 226.56 20.9823 226.56 17.1163C226.56 13.2502 228.729 10.5572 231.89 10.5572C232.783 10.5572 233.495 10.772 234.107 11.2677C234.058 11.0033 234.008 10.1442 234.008 9.41725V5.13818L237.252 5.65035V18.5701C237.252 21.6266 237.5 22.6179 237.716 23.1136H234.803H234.786ZM234.058 13.9607C233.445 13.432 232.866 13.1676 232.287 13.1676C230.83 13.1676 230.202 14.3737 230.202 17.1493C230.202 19.9249 230.764 20.7014 232.469 20.7014C233.081 20.7014 233.76 20.2884 234.074 19.9084V13.9772L234.058 13.9607Z" fill="#222222"/>
<path d="M122.11 48.3914C122.011 48.1931 121.961 47.9949 121.911 47.6644C121.1 48.3749 120.157 48.7053 119.048 48.7053C115.887 48.7053 113.884 46.2601 113.884 42.3941C113.884 38.5281 116.052 35.8351 119.214 35.8351C120.107 35.8351 120.819 36.0498 121.431 36.5455C121.382 36.2811 121.332 35.422 121.332 34.6951V30.416L124.576 30.9282V43.848C124.576 46.9045 124.824 47.8957 125.039 48.3914H122.126H122.11ZM121.382 39.2385C120.769 38.7098 120.19 38.4455 119.611 38.4455C118.154 38.4455 117.525 39.6515 117.525 42.4271C117.525 45.2027 118.088 45.9792 119.793 45.9792C120.405 45.9792 121.084 45.5662 121.398 45.1862V39.255L121.382 39.2385Z" fill="#222222"/>
<path d="M130.998 43.2036V43.3028C130.998 45.2192 131.941 46.3097 133.629 46.3097C134.754 46.3097 135.797 45.8966 136.79 45.0706L138.048 47.0036C136.608 48.1766 135.102 48.7218 133.348 48.7218C129.773 48.7218 127.456 46.194 127.456 42.295C127.456 40.0646 127.919 38.5776 129.011 37.3716C130.038 36.2316 131.279 35.7029 132.934 35.7029C134.374 35.7029 135.731 36.182 136.525 37.0081C137.667 38.1811 138.18 39.8498 138.18 42.4436V43.2036H130.981H130.998ZM134.821 40.6758C134.821 39.7506 134.721 39.2715 134.44 38.8089C134.126 38.3298 133.662 38.082 133 38.082C131.759 38.082 131.047 39.0567 131.047 40.775V40.8245H134.821V40.6758Z" fill="#222222"/>
<path d="M155.145 48.3914H146.224V31.5229H149.7V45.5827H155.757L155.145 48.3914Z" fill="#222222"/>
<path d="M166.25 49.0193C165.489 48.7054 164.81 48.1436 164.496 47.5158C164.248 47.7636 163.983 47.9949 163.735 48.1767C163.122 48.6062 162.245 48.8541 161.235 48.8541C158.471 48.8541 156.949 47.4497 156.949 44.9715C156.949 42.0637 158.968 40.6924 162.924 40.6924C163.172 40.6924 163.387 40.6925 163.652 40.709V40.1968C163.652 38.809 163.387 38.3464 162.195 38.3464C161.153 38.3464 159.928 38.8586 158.604 39.7507L157.214 37.4212C157.876 37.0082 158.356 36.7603 159.233 36.3969C160.458 35.8847 161.5 35.6699 162.642 35.6699C164.728 35.6699 166.168 36.4464 166.647 37.8342C166.813 38.3464 166.896 38.7264 166.863 40.0646L166.796 44.2446C166.78 45.5993 166.863 46.1941 167.972 47.0037L166.25 49.0028V49.0193ZM163.486 42.9559C161.219 42.9559 160.441 43.3689 160.441 44.8559C160.441 45.8306 161.053 46.475 161.881 46.475C162.493 46.475 163.106 46.1611 163.586 45.6324L163.635 42.9559H163.486Z" fill="#222222"/>
<path d="M174.228 48.7878C172.688 48.7878 171.017 48.3087 169.196 47.3504L170.371 44.9714C171.364 45.5826 173.102 46.3757 174.509 46.3757C175.436 46.3757 176.164 45.7644 176.164 44.9714C176.164 44.1288 175.552 43.6827 174.244 43.4349L172.788 43.1705C171.96 43.0218 170.934 42.4436 170.504 41.9149C170.073 41.3862 169.792 40.4775 169.792 39.6845C169.792 37.2558 171.712 35.6367 174.608 35.6367C176.611 35.6367 177.918 36.248 179.06 36.8097L177.985 38.9906C176.743 38.3628 175.849 38.0984 174.923 38.0984C173.996 38.0984 173.334 38.5775 173.334 39.3045C173.334 39.9323 173.748 40.2793 174.89 40.5601L176.396 40.9566C177.935 41.3366 178.431 41.7992 178.878 42.361C179.342 42.9392 179.557 43.6496 179.557 44.4757C179.557 47.0531 177.422 48.8043 174.228 48.8043V48.7878Z" fill="#222222"/>
<path d="M196.472 48.3914L195.28 44.3932H190.315L189.123 48.3914H185.565L191.109 31.4734H194.783L200.113 48.3914H196.472ZM193.526 38.1811L192.847 35.1907C192.748 35.5707 192.334 37.322 192.036 38.4455C191.721 39.6515 191.506 40.4611 191.142 41.5845H194.452C194.336 41.2211 193.79 39.3541 193.526 38.1811Z" fill="#222222"/>
<path d="M214.578 48.3914V40.1802C214.578 38.6933 214.412 38.4124 213.552 38.4124C212.939 38.4124 212.095 38.8254 211.383 39.4533V48.3914H208.289V40.3124C208.289 38.7594 208.073 38.3959 207.163 38.3959C206.551 38.3959 205.723 38.7098 205.028 39.3376V48.3914H201.85V39.7176C201.85 37.9168 201.735 37.1402 201.387 36.5455L204.333 35.7524C204.548 36.0994 204.647 36.3803 204.763 37.0081C205.607 36.182 206.667 35.7524 207.809 35.7524C208.835 35.7524 209.679 36.0994 210.341 36.7768C210.506 36.942 210.688 37.1568 210.821 37.3881C211.963 36.215 212.989 35.769 214.346 35.769C215.323 35.769 216.249 36.0664 216.796 36.5455C217.507 37.1568 217.722 37.8837 217.722 39.5854V48.4244H214.561L214.578 48.3914Z" fill="#222222"/>
<path d="M224.177 43.2037V43.3028C224.177 45.2193 225.12 46.3097 226.809 46.3097C227.934 46.3097 228.977 45.8967 229.97 45.0706L231.228 47.0036C229.788 48.1766 228.282 48.7218 226.527 48.7218C222.952 48.7218 220.635 46.1941 220.635 42.295C220.635 40.0646 221.099 38.5777 222.191 37.3716C223.217 36.2316 224.458 35.7029 226.113 35.7029C227.553 35.7029 228.911 36.182 229.705 37.0081C230.847 38.1811 231.36 39.8498 231.36 42.4437V43.2037H224.161H224.177ZM224.227 34.8769L223.234 33.076L228.265 29.9204L229.672 32.4482L224.227 34.8769ZM228 40.6759C228 39.7507 227.901 39.2716 227.62 38.809C227.305 38.3298 226.842 38.082 226.18 38.082C224.938 38.082 224.227 39.0568 224.227 40.775V40.8246H228V40.6759Z" fill="#222222"/>
<path d="M240.132 38.809C239.817 38.6438 239.553 38.5612 239.188 38.5612C238.46 38.5612 237.798 38.9081 237.186 39.602V48.3915H233.925V40.0812C233.925 38.4125 233.727 37.1403 233.462 36.4464L236.375 35.6699C236.673 36.1821 236.838 36.7438 236.888 37.4377C237.6 36.496 238.593 35.6699 239.801 35.6699C240.281 35.6699 240.512 35.7195 241.009 35.9343L240.115 38.7925L240.132 38.809Z" fill="#222222"/>
<path d="M244.038 34.563C242.945 34.563 242.035 33.6708 242.035 32.5474C242.035 31.4239 242.962 30.5317 244.071 30.5317C245.18 30.5317 246.04 31.4239 246.04 32.5474C246.04 33.6708 245.147 34.563 244.021 34.563H244.038ZM242.416 48.3915V36.1821L245.676 35.6699V48.3915H242.416Z" fill="#222222"/>
<path d="M257.047 47.9123C256.169 48.4244 255.193 48.6888 254.001 48.6888C250.575 48.6888 248.573 46.3097 248.573 42.2784C248.573 39.4202 249.665 37.5203 251.121 36.529C251.949 35.9672 253.157 35.6038 254.216 35.6038C255.044 35.6038 255.938 35.802 256.633 36.1655C257.096 36.4133 257.311 36.5785 257.841 37.0411L256.252 39.1724C255.59 38.5611 254.895 38.1976 254.283 38.1976C252.826 38.1976 252.164 39.4533 252.164 42.3776C252.164 44.0132 252.379 44.9714 252.793 45.5166C253.141 45.9462 253.687 46.2271 254.249 46.2271C255.011 46.2271 255.689 45.9132 256.484 45.2027L256.682 45.0375L258.172 47.0036C257.692 47.4827 257.46 47.6644 257.03 47.9288L257.047 47.9123Z" fill="#222222"/>
<path d="M268.715 49.0193C267.953 48.7054 267.275 48.1436 266.96 47.5158C266.712 47.7636 266.447 47.9949 266.199 48.1767C265.587 48.6062 264.709 48.8541 263.7 48.8541C260.936 48.8541 259.413 47.4497 259.413 44.9715C259.413 42.0637 261.432 40.6924 265.388 40.6924C265.636 40.6924 265.851 40.6925 266.116 40.709V40.1968C266.116 38.809 265.851 38.3464 264.66 38.3464C263.617 38.3464 262.392 38.8586 261.068 39.7507L259.678 37.4212C260.34 37.0082 260.82 36.7603 261.697 36.3969C262.922 35.8847 263.965 35.6699 265.107 35.6699C267.192 35.6699 268.632 36.4464 269.112 37.8342C269.277 38.3464 269.36 38.7264 269.327 40.0646L269.261 44.2446C269.244 45.5993 269.327 46.1941 270.436 47.0037L268.715 49.0028V49.0193ZM265.951 42.9559C263.683 42.9559 262.905 43.3689 262.905 44.8559C262.905 45.8306 263.518 46.475 264.345 46.475C264.958 46.475 265.57 46.1611 266.05 45.6324L266.1 42.9559H265.951Z" fill="#222222"/>
<path d="M276.692 48.7878C275.153 48.7878 273.481 48.3087 271.661 47.3504L272.836 44.9714C273.829 45.5826 275.567 46.3757 276.973 46.3757C277.9 46.3757 278.628 45.7644 278.628 44.9714C278.628 44.1288 278.016 43.6827 276.709 43.4349L275.252 43.1705C274.425 43.0218 273.398 42.4436 272.968 41.9149C272.538 41.3862 272.256 40.4775 272.256 39.6845C272.256 37.2558 274.176 35.6367 277.073 35.6367C279.075 35.6367 280.383 36.248 281.525 36.8097L280.449 38.9906C279.208 38.3628 278.314 38.0984 277.387 38.0984C276.46 38.0984 275.798 38.5775 275.798 39.3045C275.798 39.9323 276.212 40.2793 277.354 40.5601L278.86 40.9566C280.399 41.3366 280.896 41.7992 281.343 42.361C281.806 42.9392 282.021 43.6496 282.021 44.4757C282.021 47.0531 279.886 48.8043 276.692 48.8043V48.7878Z" fill="#222222"/>
<path d="M96.8206 0H95.8938V55H96.8206V0Z" fill="#222222"/>
<path d="M14.9948 41.7167C15.2265 41.5515 15.0444 41.5019 14.9948 41.5019H14.9617C14.73 41.4689 13.9852 41.7497 13.7038 41.2375C13.2735 40.4445 15.723 36.975 16.1037 36.4133C16.4678 35.835 18.0732 33.5716 17.7091 33.0925C17.2622 32.4977 15.8885 32.7125 13.439 34.5959C10.973 36.4959 9.71515 37.4872 8.77177 38.2141C7.82838 38.9411 3.93901 42.0636 3.32664 41.4689C2.96252 41.1219 4.46862 39.3376 5.87542 37.6689C6.90155 36.4628 7.87804 35.2898 8.07664 35.0255C8.57316 34.4142 12.1646 30.2508 11.304 29.3256C10.4434 28.4004 7.81183 29.8873 6.8188 30.4655C5.82577 31.0438 2.1681 33.2742 0.546145 34.7116C0.215134 34.9924 -0.0331246 35.2403 0.430291 35.3724C0.430291 35.3724 0.926807 35.5872 1.62193 35.6037C2.51566 35.6368 3.04528 35.4055 3.27698 35.2733C3.8728 34.9263 5.54441 33.6542 5.89197 34.0177C6.05748 34.1829 4.18726 36.2646 3.02873 37.8011C2.53221 38.4619 -1.00961 42.6419 0.297886 44.294C1.19162 45.434 5.2796 43.2862 7.79528 41.7002C10.4103 40.0645 12.0819 38.1315 12.7439 38.6106C13.257 38.9741 10.3441 41.981 11.6185 42.8732C12.1646 43.2532 14.2334 42.2619 14.9782 41.7497C14.9782 41.7497 14.9782 41.7497 14.9948 41.7497" fill="#C10230"/>
<path d="M29.5427 37.8342C33.9286 33.4725 40.3999 27.3761 42.3363 25.3109C45.8781 21.544 48.0131 17.0667 44.1899 13.118C43.048 11.9285 40.946 10.6233 37.3546 10.6233C35.2195 10.6233 32.2404 10.8215 28.6324 12.0772C23.6176 13.8119 20.1585 15.6954 18.4042 16.6371C16.6498 17.5788 16.203 17.8927 16.203 17.8927C16.203 17.8927 16.203 17.8927 16.1864 17.9093C15.872 18.1406 16.6498 18.3719 16.6498 18.3719C17.2788 18.5536 19.4303 18.851 20.0923 18.5206C20.5558 18.2893 25.4878 15.8441 26.9443 15.2658C28.5166 14.6545 31.9756 13.3659 36.0471 13.2006C38.3972 13.1015 40.8302 13.5806 42.419 15.1171C45.0837 17.678 42.0218 21.924 39.3737 24.6005C38.3476 25.6248 36.3781 27.4422 35.1699 28.7143C34.3093 29.623 33.7796 30.2343 33.6307 30.2508C33.2666 30.3169 32.3563 29.4082 30.6185 29.1439C28.649 28.8465 25.223 28.9456 20.2413 33.6377C14.6307 38.9246 15.8389 43.2532 17.345 44.1949C18.8842 45.1532 21.8302 45.1367 25.5375 41.7993C26.6629 40.7915 27.838 39.4863 29.5262 37.8176M22.8894 40.7419C21.3171 42.0306 19.7117 42.3776 19.0497 41.7663C18.2883 41.0724 18.9835 39.4533 19.5958 38.4289C20.9695 36.182 23.8824 33.0099 27.3415 31.8864C30.8006 30.763 31.7439 31.7377 31.6281 32.2334C31.595 32.3656 31.3798 32.5969 30.4861 33.3899C28.2683 35.3394 24.6272 39.3376 22.8894 40.7419Z" fill="#C10230"/>
<path d="M43.6438 30.5481C44.4713 29.7385 56.2884 18.4709 57.4801 17.1987C58.6717 15.9266 62.4287 12.2919 62.4452 10.838C62.4452 10.838 62.4949 10.3589 61.6177 10.2928C61.1708 10.2597 60.7571 10.1936 60.4592 10.3589C60.1281 10.5406 59.5654 11.251 59.3172 11.5319C58.771 12.1597 57.2318 13.7953 55.4609 15.3649C53.69 16.9509 47.7318 23.0143 46.0933 24.5838C44.4548 26.1534 41.3764 29.3255 39.7875 30.8455C38.1987 32.3655 30.8006 39.4862 29.7413 40.5271C26.4643 43.7488 28.2187 44.4757 28.2187 44.4757C29.311 45.087 30.2544 43.8974 30.8337 43.3357C31.4129 42.774 42.8163 31.3577 43.6438 30.5481Z" fill="#C10230"/>
<path d="M78.0358 37.5037C78.0358 37.5037 76.5959 36.7602 75.6525 36.4132C74.7422 36.0828 70.8032 34.4967 64.7788 33.5715C58.8206 32.6629 58.0758 32.8776 58.0758 32.8776C58.0758 32.8776 58.142 30.8125 56.2883 29.8047C54.7491 28.9621 52.7465 28.9455 51.3232 29.0116C49.1551 29.0942 47.2352 29.6064 46.5732 29.9533C45.9112 30.3003 45.5801 31.0272 46.027 31.6385C46.3746 32.1177 48.0462 31.6055 48.8241 31.3907C49.3702 31.242 51.4556 30.7629 52.9617 30.9446C54.4843 31.1264 55.7587 31.8533 55.6098 33.0098C55.5932 33.1916 51.6707 33.0924 47.8476 34.2489C42.5183 35.868 35.8319 38.8749 37.0732 43.154C37.5035 44.6079 39.7875 44.9218 42.6342 44.3436C45.9774 43.6662 49.2378 42.1132 50.4129 41.5019C52.5314 40.4114 55.5436 38.6106 57.9931 35.1741C58.0758 35.0585 64.4974 35.0915 70.5549 36.3967C74.1464 37.1732 76.1987 37.7184 76.6455 37.8506C77.7379 38.181 77.8703 38.115 77.9365 38.0323C78.1516 37.7515 78.1682 37.6028 77.9861 37.5202M52.9782 37.2063C52.7134 37.4376 50.8929 38.9575 48.3937 40.0645C47.0697 40.6593 44.885 41.4688 43.3458 41.8819C41.9887 42.2288 40.3336 42.2949 39.8702 41.8819C39.3737 41.4192 40.2012 40.1636 41.4591 39.2549C43.0645 38.0819 44.8023 37.4541 45.845 37.1071C50.9756 35.3889 54.8485 34.9759 54.8816 35.422C54.9147 35.835 53.2265 37.008 52.9451 37.2393" fill="#C10230"/>
<path d="M60.1943 42.1792C60.2274 41.9149 60.5585 41.7166 60.8067 41.6175C61.5018 41.3201 62.2963 41.2705 63.041 41.3862C63.7858 41.5018 64.514 41.7992 65.1761 42.1462C65.2754 42.1957 65.3747 42.2618 65.3747 42.361C65.3912 42.6583 64.3485 42.774 64.1499 42.807C63.5706 42.9062 62.9748 42.9557 62.379 42.9557C61.8494 42.9557 61.3032 42.9557 60.8067 42.807C60.575 42.7244 60.3267 42.6253 60.2274 42.3775C60.1943 42.3114 60.1943 42.2288 60.1943 42.1627" fill="#C10230"/>
</g>
<defs>
<clipPath id="clip0_1059_4708">
<rect width="282.021" height="55" fill="white"/>
</clipPath>
</defs>
</svg>
