<?xml version="1.0" encoding="UTF-8"?>
<svg id="Layer_1" xmlns="http://www.w3.org/2000/svg" version="1.1" viewBox="0 0 841.89 255.88">
  <!-- Generator: Adobe Illustrator 29.8.1, SVG Export Plug-In . SVG Version: 2.1.1 Build 2)  -->
  <defs>
    <style>
      .st0 {
        fill: none;
      }

      .st1 {
        fill-rule: evenodd;
      }

      .st1, .st2 {
        fill: #fff;
      }
    </style>
  </defs>
  <g>
    <path class="st2" d="M54.01,190.36c-10.81,0-19.03-2.86-24.66-8.58-5.63-5.72-8.44-14.08-8.44-25.08s2.94-19.2,8.82-25.17c5.88-5.97,14.06-8.96,24.56-8.96,5.03,0,9.74.66,14.14,1.98,1,.32,1.68.74,2.03,1.27.34.53.52,1.4.52,2.59v7.92c0,1.7-.66,2.55-1.98,2.55-.32,0-1.1-.16-2.36-.47-3.08-.69-6.16-1.04-9.24-1.04-5.78,0-10.15,1.52-13.11,4.57s-4.43,7.56-4.43,13.53v2.07c0,5.85,1.43,10.31,4.29,13.39s7.09,4.62,12.68,4.62c3.9,0,7.54-.41,10.94-1.23,1-.25,1.73-.38,2.17-.38,1.32,0,1.98.85,1.98,2.55v7.92c0,1.2-.17,2.06-.52,2.59s-1.02.96-2.03,1.27c-4.27,1.39-9.39,2.09-15.36,2.09Z"/>
    <path class="st2" d="M109.73,190.73c-6.85,0-12.76-1.43-17.73-4.29s-8.74-6.87-11.31-12.02c-2.58-5.15-3.87-11.19-3.87-18.1s1.35-13.22,4.05-18.34c2.7-5.12,6.52-9.04,11.46-11.74,4.93-2.7,10.73-4.05,17.4-4.05s12.76,1.42,17.73,4.24c4.96,2.83,8.75,6.82,11.36,11.97,2.61,5.16,3.91,11.22,3.91,18.2s-1.35,13.23-4.05,18.39-6.54,9.07-11.5,11.74c-4.97,2.67-10.79,4-17.45,4ZM109.73,176.31c4.78,0,8.38-1.67,10.8-5,2.42-3.33,3.63-8.23,3.63-14.71s-1.23-11.58-3.68-14.94-6.03-5.04-10.75-5.04-8.28,1.67-10.7,5-3.63,8.24-3.63,14.71,1.21,11.5,3.63,14.9c2.42,3.38,5.99,5.08,10.7,5.08Z"/>
    <path class="st2" d="M157.63,189.13c-1.01,0-1.73-.22-2.17-.66s-.66-1.16-.66-2.17v-59.68c0-1.07.22-1.81.66-2.22s1.16-.61,2.17-.61h14.14c.88,0,1.56.14,2.03.42s.93.9,1.37,1.84l14.8,33.19,14.99-33.19c.44-.94.9-1.56,1.37-1.84s1.15-.42,2.03-.42h13.48c1.07,0,1.81.2,2.22.61s.61,1.15.61,2.22v59.68c0,1.01-.21,1.73-.61,2.17-.41.44-1.15.66-2.22.66h-9.99c-1.01,0-1.73-.22-2.17-.66s-.66-1.16-.66-2.17v-37.53l-10.28,23.19c-.44.94-.9,1.56-1.37,1.84s-1.15.42-2.03.42h-11.22c-.88,0-1.56-.14-2.03-.42s-.93-.9-1.37-1.84l-10.28-23.19v37.53c0,1.01-.2,1.73-.61,2.17s-1.15.66-2.22.66h-9.98Z"/>
    <path class="st2" d="M241.45,189.13c-1.01,0-1.73-.22-2.17-.66s-.66-1.16-.66-2.17v-59.68c0-1.07.22-1.81.66-2.22s1.16-.61,2.17-.61h14.14c.88,0,1.56.14,2.03.42s.93.9,1.37,1.84l14.8,33.19,14.99-33.19c.44-.94.9-1.56,1.37-1.84s1.15-.42,2.03-.42h13.48c1.07,0,1.81.2,2.22.61s.61,1.15.61,2.22v59.68c0,1.01-.21,1.73-.61,2.17-.41.44-1.15.66-2.22.66h-9.99c-1.01,0-1.73-.22-2.17-.66s-.66-1.16-.66-2.17v-37.53l-10.28,23.19c-.44.94-.9,1.56-1.37,1.84s-1.15.42-2.03.42h-11.22c-.88,0-1.56-.14-2.03-.42s-.93-.9-1.37-1.84l-10.28-23.19v37.53c0,1.01-.2,1.73-.61,2.17s-1.15.66-2.22.66h-9.98Z"/>
    <path class="st2" d="M350.63,190.73c-9.05,0-16.08-2.22-21.07-6.65-5-4.43-7.5-10.73-7.5-18.91v-38.56c0-1.07.22-1.81.66-2.22s1.16-.61,2.17-.61h12.54c1.07,0,1.81.2,2.22.61s.61,1.15.61,2.22v39.13c0,3.46.88,6.08,2.64,7.87s4.34,2.69,7.73,2.69c6.98,0,10.47-3.52,10.47-10.56v-39.13c0-1.07.22-1.81.66-2.22s1.16-.61,2.17-.61h12.54c1.07,0,1.81.2,2.22.61s.61,1.15.61,2.22v38.66c0,8.11-2.51,14.38-7.54,18.81-5.04,4.44-12.07,6.65-21.13,6.65Z"/>
    <path class="st2" d="M395.7,189.13c-1.01,0-1.73-.22-2.17-.66s-.66-1.16-.66-2.17v-59.68c0-1.07.22-1.81.66-2.22s1.16-.61,2.17-.61h13.3c1.07,0,1.87.16,2.4.47s1.02.85,1.46,1.6l21.78,39.22v-38.47c0-1.07.22-1.81.66-2.22s1.16-.61,2.17-.61h9.99c1.07,0,1.81.2,2.22.61s.61,1.15.61,2.22v59.68c0,1.01-.21,1.73-.61,2.17-.41.44-1.15.66-2.22.66h-13.29c-1.07,0-1.87-.16-2.4-.47-.54-.31-1.02-.85-1.46-1.6l-21.78-38.85v38.09c0,1.01-.21,1.73-.61,2.17-.41.44-1.15.66-2.21.66h-10.01Z"/>
    <path class="st2" d="M467.45,189.13c-1.01,0-1.73-.22-2.17-.66s-.66-1.16-.66-2.17v-59.68c0-1.07.22-1.81.66-2.22s1.16-.61,2.17-.61h12.54c1.07,0,1.81.2,2.22.61s.61,1.15.61,2.22v59.68c0,1.01-.21,1.73-.61,2.17-.41.44-1.15.66-2.22.66h-12.54Z"/>
    <path class="st2" d="M512.81,189.13c-1.01,0-1.73-.22-2.17-.66s-.66-1.16-.66-2.17v-48.27h-16.12c-1.01,0-1.73-.22-2.17-.66s-.66-1.16-.66-2.17v-8.58c0-1.07.22-1.81.66-2.22s1.16-.61,2.17-.61h50.44c1.07,0,1.81.2,2.22.61s.61,1.15.61,2.22v8.58c0,1.01-.2,1.73-.61,2.17s-1.15.66-2.22.66h-16.12v48.27c0,1.01-.21,1.73-.61,2.17-.41.44-1.15.66-2.22.66h-12.54Z"/>
    <path class="st2" d="M576.73,189.13c-1.01,0-1.73-.22-2.17-.66s-.66-1.16-.66-2.17v-21.78l-19.7-36.02c-.75-1.32-1.13-2.26-1.13-2.83,0-1.26.82-1.89,2.45-1.89h13.39c1,0,1.81.19,2.4.57.6.38,1.08,1.01,1.46,1.89l10.75,25.27,10.94-25.27c.38-.88.86-1.51,1.46-1.89.6-.38,1.4-.57,2.4-.57h12.45c1.63,0,2.45.63,2.45,1.89,0,.57-.38,1.51-1.13,2.83l-19.99,36.21v21.59c0,1.01-.2,1.73-.61,2.17s-1.15.66-2.22.66h-12.54Z"/>
    <path class="st2" d="M642.07,189.13c-1.01,0-1.73-.22-2.17-.66s-.66-1.16-.66-2.17v-59.68c0-1.07.22-1.81.66-2.22s1.16-.61,2.17-.61h22.72c10.06,0,17.85,2.83,23.38,8.49,5.53,5.66,8.3,13.7,8.3,24.14,0,6.85-1.23,12.75-3.68,17.68-2.45,4.94-5.96,8.67-10.51,11.22-4.56,2.55-10.01,3.82-16.36,3.82h-23.85ZM657.44,175.18h6.22c9.49,0,14.24-5.97,14.24-17.92v-1.7c0-11.88-4.68-17.82-14.05-17.82h-6.41v37.44Z"/>
    <path class="st2" d="M702.03,189.13c-1.63,0-2.45-.63-2.45-1.89,0-.5.25-1.45.75-2.83l20.84-58.36c.31-.88.69-1.48,1.13-1.79s1.16-.47,2.17-.47h15.09c1,0,1.73.16,2.17.47s.82.91,1.13,1.79l20.93,58.36c.5,1.38.75,2.33.75,2.83,0,1.26-.82,1.89-2.45,1.89h-14.14c-1.01,0-1.74-.19-2.22-.57-.47-.38-.86-1.13-1.18-2.26l-2.83-9.81h-20.18l-2.73,9.81c-.32,1.13-.71,1.89-1.18,2.26-.47.38-1.21.57-2.22.57h-13.38ZM738.34,163.67l-6.79-24.23-6.6,24.23h13.39Z"/>
    <path class="st2" d="M783.78,189.13c-1.01,0-1.73-.22-2.17-.66s-.66-1.16-.66-2.17v-21.78l-19.71-36.02c-.75-1.32-1.13-2.26-1.13-2.83,0-1.26.82-1.89,2.45-1.89h13.39c1,0,1.81.19,2.4.57.6.38,1.08,1.01,1.46,1.89l10.75,25.27,10.94-25.27c.38-.88.86-1.51,1.46-1.89.6-.38,1.4-.57,2.4-.57h12.45c1.63,0,2.45.63,2.45,1.89,0,.57-.38,1.51-1.13,2.83l-19.99,36.21v21.59c0,1.01-.2,1.73-.61,2.17s-1.15.66-2.22.66h-12.53Z"/>
  </g>
  <g>
    <path class="st2" d="M396.23,45.36c0,1.72.17,3.08.52,4.1.35,1.02.84,2.12,1.49,3.29.21.38.32.72.32,1.04,0,.48-.3.94-.88,1.37l-2.89,1.93c-.43.27-.83.4-1.21.4-.48,0-.94-.21-1.37-.64-.64-.64-1.19-1.35-1.65-2.13-.46-.78-.92-1.67-1.41-2.69-3.59,4.23-8.09,6.35-13.5,6.35-3.86,0-6.91-1.1-9.16-3.29-2.25-2.2-3.37-5.14-3.37-8.84,0-3.91,1.39-7.06,4.18-9.44,2.78-2.38,6.53-3.58,11.25-3.58,1.55,0,3.17.12,4.86.36,1.69.24,3.44.58,5.26,1v-3.37c0-3.48-.72-5.93-2.17-7.35s-3.94-2.13-7.47-2.13c-1.61,0-3.25.2-4.94.6s-3.33.92-4.94,1.57c-.75.32-1.29.52-1.61.6-.32.08-.56.12-.72.12-.64,0-.96-.48-.96-1.45v-2.25c0-.75.11-1.29.32-1.61.21-.32.64-.64,1.29-.96,1.61-.8,3.54-1.5,5.79-2.09s4.63-.88,7.15-.88c5.46,0,9.47,1.25,12.01,3.74s3.82,6.25,3.82,11.29v14.94h-.01ZM377.59,52.35c1.5,0,3.08-.28,4.74-.84s3.11-1.54,4.34-2.93c.75-.86,1.27-1.83,1.57-2.93.29-1.1.44-2.42.44-3.98v-1.93c-1.34-.32-2.75-.57-4.22-.76s-2.91-.28-4.3-.28c-3.05,0-5.33.62-6.83,1.85s-2.25,3-2.25,5.3c0,2.14.56,3.76,1.69,4.86,1.12,1.09,2.73,1.64,4.82,1.64ZM414.47,57.33c-.8,0-1.39-.15-1.77-.44-.38-.29-.7-.9-.96-1.81l-10.77-35.51c-.27-.91-.4-1.53-.4-1.85,0-.75.37-1.13,1.12-1.13h4.5c.86,0,1.46.15,1.81.44.35.3.66.9.92,1.81l7.71,30.37,7.15-30.37c.21-.91.51-1.51.88-1.81.37-.29.99-.44,1.85-.44h3.7c.86,0,1.47.15,1.85.44.37.3.67.9.88,1.81l7.23,30.77,7.95-30.77c.27-.91.57-1.51.92-1.81.35-.29.95-.44,1.81-.44h4.26c.75,0,1.12.38,1.12,1.13,0,.21-.03.46-.08.72-.05.27-.16.64-.32,1.13l-11.09,35.51c-.27.91-.59,1.51-.96,1.81-.38.3-.96.44-1.77.44h-3.94c-.86,0-1.47-.16-1.85-.48s-.67-.94-.88-1.85l-7.15-29.57-7.05,29.57c-.21.91-.51,1.53-.88,1.85-.38.32-.99.48-1.85.48,0,0-3.94,0-3.94,0ZM473.45,58.53c-2.41,0-4.77-.27-7.07-.8-2.3-.53-4.07-1.15-5.3-1.85-.75-.43-1.22-.86-1.41-1.29s-.28-.86-.28-1.29v-2.33c0-.96.35-1.45,1.04-1.45.27,0,.55.05.84.16s.68.27,1.17.48c1.55.7,3.24,1.23,5.06,1.61s3.64.56,5.46.56c2.89,0,5.13-.51,6.71-1.53s2.37-2.46,2.37-4.34c0-1.29-.42-2.36-1.25-3.21-.83-.86-2.37-1.66-4.62-2.41l-6.67-2.09c-3.37-1.07-5.83-2.62-7.35-4.66-1.53-2.03-2.29-4.26-2.29-6.67,0-1.93.41-3.63,1.25-5.1.83-1.47,1.93-2.73,3.29-3.78,1.37-1.04,2.96-1.83,4.78-2.37,1.82-.53,3.75-.8,5.79-.8,1.02,0,2.05.07,3.09.2s2.04.31,2.97.52c.94.21,1.81.46,2.61.72.8.27,1.45.54,1.93.8.64.38,1.1.75,1.37,1.13s.4.88.4,1.53v2.17c0,.96-.35,1.45-1.04,1.45-.38,0-.96-.19-1.77-.56-2.63-1.18-5.57-1.77-8.84-1.77-2.63,0-4.66.43-6.11,1.29-1.45.86-2.17,2.22-2.17,4.1,0,1.29.45,2.37,1.37,3.25.91.88,2.6,1.73,5.06,2.53l6.51,2.09c3.32,1.07,5.69,2.55,7.11,4.42,1.42,1.88,2.13,4.02,2.13,6.43,0,1.98-.4,3.76-1.21,5.34-.8,1.58-1.92,2.93-3.33,4.06-1.42,1.13-3.12,1.98-5.1,2.57-1.98.6-4.14.89-6.5.89Z"/>
    <g>
      <path class="st1" d="M482.13,81.14c-15.12,11.16-37.03,17.09-55.91,17.09-26.45,0-50.27-9.78-68.29-26.05-1.42-1.28-.15-3.02,1.55-2.03,19.45,11.32,43.49,18.13,68.33,18.13,16.76,0,35.17-3.48,52.12-10.67,2.56-1.08,4.7,1.69,2.2,3.53Z"/>
      <path class="st1" d="M488.42,73.96c-1.93-2.48-12.78-1.17-17.65-.59-1.48.18-1.71-1.11-.37-2.05,8.65-6.08,22.83-4.32,24.48-2.29,1.66,2.05-.44,16.27-8.55,23.05-1.25,1.04-2.43.49-1.88-.89,1.82-4.55,5.91-14.75,3.97-17.23Z"/>
    </g>
  </g>
  <g>
    <line class="st0" x1="261.61" y1="224.23" x2="85.78" y2="224.23"/>
    <rect class="st2" x="85.78" y="223.23" width="175.83" height="2"/>
  </g>
  <g>
    <line class="st0" x1="755.98" y1="228.23" x2="580.15" y2="228.23"/>
    <rect class="st2" x="580.15" y="227.23" width="175.83" height="2"/>
  </g>
  <g>
    <path class="st2" d="M340.54,236.03v-22.96h16v4.84h-9.77v4.01h7.95v4.84h-7.95v4.44h9.84v4.84h-16.07Z"/>
    <path class="st2" d="M378.44,235.43c-1.81.68-3.91,1.03-6.29,1.03-3.8,0-6.69-1-8.66-3.01-1.98-2.01-2.96-4.95-2.96-8.81s1.03-6.75,3.1-8.84c2.06-2.1,4.94-3.15,8.63-3.15,2.03,0,3.99.32,5.86.96v4.84c-1.85-.4-3.45-.6-4.77-.6-2.03,0-3.57.54-4.6,1.61s-1.56,2.66-1.56,4.75v.73c0,2.05.5,3.62,1.51,4.7,1,1.08,2.49,1.62,4.46,1.62,1.5,0,3.27-.22,5.3-.66v4.83h-.02Z"/>
    <path class="st2" d="M393.38,236.59c-3.18,0-5.65-.78-7.4-2.34-1.76-1.56-2.63-3.77-2.63-6.64v-14.54h6.39v14.74c0,1.21.31,2.14.93,2.77s1.52.94,2.72.94c2.45,0,3.68-1.24,3.68-3.71v-14.74h6.39v14.58c0,2.85-.88,5.05-2.65,6.61-1.78,1.55-4.25,2.33-7.43,2.33Z"/>
    <path class="st2" d="M422.73,236.03l-1.26-4.44h-7.02l-1.19,4.44h-6.76l8.08-22.96h7.06l8.08,22.96h-6.99ZM415.64,227.08h4.64l-2.35-8.51-2.29,8.51Z"/>
    <path class="st2" d="M433.9,236.03v-22.96h8.98c3.53,0,6.27.99,8.22,2.98,1.94,1.99,2.92,4.82,2.92,8.48,0,2.41-.43,4.48-1.29,6.21-.86,1.73-2.09,3.05-3.69,3.94s-3.52,1.34-5.75,1.34h-9.39ZM440.29,217.97v13.15h2.19c3.33,0,5-2.1,5-6.29v-.6c0-4.17-1.65-6.26-4.94-6.26h-2.25Z"/>
    <path class="st2" d="M470.8,236.59c-2.41,0-4.48-.5-6.23-1.51-1.74-1-3.07-2.41-3.97-4.22-.91-1.81-1.36-3.93-1.36-6.36s.47-4.64,1.42-6.44,2.29-3.17,4.02-4.12c1.73-.95,3.77-1.42,6.11-1.42s4.48.5,6.23,1.49,3.08,2.4,3.99,4.21c.92,1.81,1.38,3.94,1.38,6.39s-.48,4.65-1.42,6.46c-.95,1.81-2.3,3.19-4.04,4.12-1.75.93-3.79,1.4-6.13,1.4ZM470.8,231.52c1.68,0,2.94-.58,3.79-1.75s1.28-2.89,1.28-5.17-.43-4.07-1.29-5.25-2.12-1.77-3.78-1.77-2.91.58-3.76,1.76c-.85,1.17-1.28,2.89-1.28,5.17s.42,4.04,1.28,5.23c.85,1.18,2.1,1.78,3.76,1.78Z"/>
    <path class="st2" d="M488.29,236.03v-22.96h9.47c2.63,0,4.71.67,6.26,2,1.54,1.34,2.32,3.15,2.32,5.45,0,1.35-.3,2.55-.91,3.61-.61,1.06-1.46,1.91-2.57,2.55l5.07,9.34h-6.63l-4.04-8.02h-2.92v8.02h-6.05ZM494.35,223.7h2.72c.97,0,1.73-.27,2.27-.8.54-.53.81-1.29.81-2.29,0-2.01-1.05-3.01-3.15-3.01h-2.65v6.1Z"/>
  </g>
</svg>