<?xml version="1.0" encoding="UTF-8"?>
<svg id="Layer_1" xmlns="http://www.w3.org/2000/svg" version="1.1" viewBox="0 0 841.89 192.24">
  <!-- Generator: Adobe Illustrator 29.6.1, SVG Export Plug-In . SVG Version: 2.1.1 Build 9)  -->
  <defs>
    <style>
      .st0 {
        fill: #fbac3b;
      }

      .st1 {
        fill: #fff;
      }

      .st2 {
        fill: #fe9902;
      }

      .st3 {
        fill: none;
        stroke: #76b5d1;
        stroke-linecap: round;
        stroke-miterlimit: 10;
        stroke-width: .34px;
      }
    </style>
  </defs>
  <g>
    <g>
      <path class="st1" d="M318.58,136.56c0-.36.2-.54.59-.54h33.05c.16,0,.28.08.34.25l1.92,6.07c.06.13.06.25-.03.35-.08.1-.19.15-.32.15h-28.21c-.36,0-.54.18-.54.54v6.76c0,.26.11.39.35.39h21.11c.13,0,.23.05.3.15.06.1.08.2.05.3l-1.92,6.07c-.07.2-.2.3-.4.3h-19.14c-.23,0-.35.12-.35.34v6.76c0,.17.05.3.15.42s.23.17.4.17h28.21c.13,0,.24.05.32.15.08.1.09.2.03.3l-1.92,6.07c-.07.17-.18.25-.34.25h-33.05c-.4,0-.59-.18-.59-.54v-34.68Z"/>
      <path class="st1" d="M396.96,169.86c0,.1-.07.18-.2.25-1.55.66-3.41,1.26-5.6,1.8-2.19.54-4.61.81-7.28.81-2.96,0-5.89-.36-8.8-1.09-2.91-.72-5.52-1.83-7.84-3.31-2.32-1.48-4.2-3.36-5.65-5.65-1.45-2.29-2.17-4.97-2.17-8.06,0-2.66.41-4.99,1.23-6.98.82-1.99,1.91-3.71,3.26-5.15,1.35-1.45,2.88-2.64,4.59-3.58,1.71-.94,3.45-1.69,5.23-2.24,1.78-.56,3.52-.94,5.23-1.16,1.71-.21,3.22-.32,4.54-.32,2.86,0,5.42.23,7.67.69,2.25.46,4.12.92,5.6,1.38.13.07.2.17.2.3l.49,6.81c0,.23-.1.34-.29.34-.03,0-.06,0-.08-.02-.02-.02-.04-.03-.07-.03-.39-.16-1.02-.39-1.87-.69-.86-.3-1.88-.59-3.06-.89-1.18-.3-2.5-.55-3.95-.76-1.45-.21-2.99-.32-4.64-.32-2.24,0-4.39.3-6.46.91-2.07.61-3.91,1.47-5.53,2.59-1.61,1.12-2.89,2.45-3.85,4-.96,1.55-1.43,3.26-1.43,5.13,0,1.48.3,2.79.89,3.92.59,1.13,1.37,2.12,2.34,2.96.97.84,2.07,1.54,3.31,2.1,1.23.56,2.51,1.01,3.82,1.36,1.31.35,2.6.59,3.87.74,1.26.15,2.41.22,3.43.22,1.48,0,2.92-.14,4.32-.42s2.67-.61,3.82-.99c1.15-.38,2.18-.77,3.08-1.18.9-.41,1.6-.75,2.1-1.01.03,0,.06,0,.07-.02.02-.02.04-.03.07-.03.26,0,.36.12.3.35l-.69,7.25Z"/>
      <path class="st1" d="M405.14,135.97h5.62c.17,0,.3.06.42.17.11.12.17.26.17.42v18.15c0,2.07.41,3.82,1.23,5.23.82,1.41,1.88,2.57,3.18,3.45,1.3.89,2.78,1.53,4.44,1.92,1.66.4,3.33.59,5.01.59s3.35-.2,5.01-.59c1.66-.39,3.14-1.04,4.44-1.92,1.3-.89,2.36-2.04,3.18-3.45.82-1.41,1.23-3.16,1.23-5.23v-18.15c0-.39.2-.59.59-.59h5.62c.4,0,.59.2.59.59v18.15c0,2.7-.5,5.15-1.51,7.35-1,2.2-2.41,4.09-4.22,5.67-1.81,1.58-3.98,2.8-6.51,3.67-2.53.87-5.34,1.31-8.43,1.31s-5.91-.44-8.46-1.31c-2.55-.87-4.73-2.1-6.54-3.67-1.81-1.58-3.2-3.47-4.19-5.67-.99-2.2-1.48-4.65-1.48-7.35v-18.15c0-.39.2-.59.59-.59Z"/>
      <path class="st1" d="M450.08,171.39l17.61-35.22c.13-.13.25-.2.35-.2h7.4c.17,0,.28.07.34.2l17.66,35.22c.06.13.06.26-.03.39-.08.13-.19.2-.32.2h-6.76c-.17,0-.28-.08-.35-.25l-2.96-5.92c-.07-.13-.18-.2-.34-.2h-21.9c-.13,0-.23.07-.3.2l-2.96,5.92c-.1.17-.21.25-.34.25h-6.76c-.17,0-.28-.07-.34-.2-.07-.13-.07-.26,0-.39ZM464.33,158.81h14.8c.1,0,.17-.04.22-.12.05-.08.04-.16-.03-.22l-7.45-14.9c-.07-.16-.15-.16-.25,0l-7.5,14.9c-.07.23,0,.34.2.34Z"/>
      <path class="st1" d="M501.33,171.98c-.26,0-.47-.08-.62-.25-.15-.16-.22-.36-.22-.59v-34.33c0-.56.28-.84.84-.84h18.15c3.49,0,6.59.43,9.32,1.28,2.73.86,5.04,2.06,6.93,3.63,1.89,1.56,3.34,3.45,4.34,5.67,1,2.22,1.51,4.69,1.51,7.42,0,2.2-.37,4.38-1.11,6.54-.74,2.15-1.97,4.08-3.7,5.77-1.73,1.69-4,3.07-6.81,4.12-2.81,1.05-6.31,1.58-10.48,1.58h-18.15ZM507.29,164.33c0,.23.08.43.22.59.15.17.34.25.57.25h11.39c2.76,0,5.11-.21,7.05-.62,1.94-.41,3.53-1.07,4.76-1.97,1.23-.9,2.13-2.06,2.69-3.48.56-1.41.84-3.12.84-5.13,0-1.61-.25-3.01-.74-4.19-.49-1.18-1.15-2.2-1.97-3.03-.82-.84-1.76-1.51-2.81-2.02-1.05-.51-2.15-.91-3.28-1.21-1.14-.3-2.27-.49-3.4-.59-1.13-.1-2.18-.15-3.13-.15h-11.39c-.53,0-.79.28-.79.84v20.72Z"/>
      <path class="st1" d="M570.73,172.72c-1.55,0-3.17-.19-4.88-.57-1.71-.38-3.4-.93-5.06-1.65-1.66-.72-3.25-1.62-4.76-2.69s-2.85-2.3-4-3.7c-1.15-1.4-2.06-2.94-2.74-4.64-.67-1.69-1.01-3.54-1.01-5.55,0-2.24.34-4.25,1.04-6.04.69-1.79,1.62-3.38,2.79-4.76,1.17-1.38,2.51-2.57,4.02-3.58,1.51-1,3.1-1.83,4.76-2.47,1.66-.64,3.34-1.12,5.03-1.43,1.69-.31,3.3-.47,4.81-.47,2.43,0,4.97.38,7.62,1.13,2.65.76,5.07,1.91,7.28,3.45,2.2,1.55,4.02,3.49,5.45,5.84,1.43,2.35,2.15,5.12,2.15,8.31,0,2.8-.57,5.34-1.7,7.65-1.13,2.3-2.71,4.28-4.74,5.94-2.02,1.66-4.4,2.94-7.13,3.85-2.73.9-5.71,1.36-8.93,1.36ZM570.73,141.99c-2.17,0-4.2.31-6.09.94-1.89.63-3.54,1.48-4.96,2.57s-2.53,2.35-3.35,3.8c-.82,1.45-1.23,2.99-1.23,4.64s.41,3.2,1.23,4.66c.82,1.46,1.94,2.74,3.35,3.82,1.41,1.09,3.07,1.94,4.96,2.57,1.89.63,3.92.94,6.09.94s4.2-.31,6.09-.94c1.89-.62,3.55-1.48,4.98-2.57,1.43-1.09,2.56-2.36,3.38-3.82.82-1.46,1.23-3.02,1.23-4.66s-.41-3.19-1.23-4.64c-.82-1.45-1.95-2.71-3.38-3.8s-3.09-1.94-4.98-2.57c-1.89-.62-3.92-.94-6.09-.94Z"/>
      <path class="st1" d="M601.01,136.27c0-.2.1-.3.3-.3h27.72c1.61,0,3.1.32,4.46.96,1.37.64,2.55,1.5,3.55,2.59,1,1.09,1.79,2.33,2.37,3.72.57,1.4.86,2.84.86,4.32s-.28,2.91-.84,4.19c-.56,1.28-1.33,2.4-2.32,3.35-.99.95-2.16,1.7-3.53,2.24-1.36.54-2.83.83-4.41.86-.13,0-.15.05-.05.15l12.09,13.17c.06.07.07.15.02.25-.05.1-.12.15-.22.15h-7.99c-.07,0-.13-.03-.2-.1l-12.43-13.52c-.07-.07-.13-.1-.2-.1h-12.08c-.2,0-.3.1-.3.3v13.07c0,.2-.1.3-.29.3h-6.22c-.2,0-.3-.1-.3-.3v-35.32ZM608.12,151.41h20.91c.53,0,1.05-.07,1.58-.22s1-.38,1.43-.69.77-.72,1.04-1.21c.26-.49.4-1.07.4-1.73s-.12-1.27-.37-1.85c-.25-.57-.58-1.08-1.01-1.5-.43-.43-.91-.77-1.43-1.04-.53-.26-1.07-.39-1.63-.39h-20.91c-.2,0-.3.1-.3.3v8.04c0,.2.1.3.3.3Z"/>
    </g>
    <g>
      <path class="st1" d="M403.32,76.19l-16.98,52.36h-15.86l-10.02-31.86-10.47,31.86h-15.86l-16.98-52.36h15.26l10.55,33.43,11.07-33.43h13.61l10.55,33.73,11-33.73h14.14Z"/>
      <path class="st1" d="M518.52,128.55l-.15-27.75-13.46,22.59h-6.58l-13.39-21.84v27h-13.69v-52.36h12.19l18.4,30.22,17.95-30.22h12.19l.15,52.36h-13.61Z"/>
      <path class="st1" d="M584.64,117.11v11.44h-42.03v-52.36h41.06v11.44h-26.4v8.83h23.26v11.07h-23.26v9.57h27.37Z"/>
      <path class="st1" d="M642.69,76.19v52.36h-12.19l-23.11-27.9v27.9h-14.51v-52.36h12.19l23.11,27.9v-27.9h14.51Z"/>
      <path class="st1" d="M434.37,75.14c-16.75,0-29.1,11.52-29.1,27.23,0,4.8,1.17,9.2,3.25,13,.08.17.17.33.26.49.05.09.11.18.16.27,1.17,2.09,2.73,4,4.58,5.69.21.2.43.39.65.58.22.19.43.38.66.57,2.15,1.76,4.59,3.22,7.28,4.3v-.13c.74.3,1.49.57,2.26.81v.12c1.84.58,3.77.99,5.78,1.24v-.08c.74.1,1.49.18,2.26.23v.05c.64.04,1.28.08,1.94.08.98,0,1.93-.06,2.87-.15,13.92-1.01,24.91-10.15,25.67-21.51.36-1.79.55-3.64.55-5.57,0-15.71-12.34-27.23-29.1-27.23ZM458.6,107.88c-.4,3.54-3.2,6.09-6.87,6.12-6.1.05-12.21.02-18.31.02-4.51,0-9.01.03-13.52,0-3.5-.03-6.36-1.37-8.07-4.54-1.56-2.9-1.41-5.86.37-8.61,1.91-2.94,4.8-4.06,8.4-3.85.4-4.35,2.26-7.55,6.2-9.28,4.48-1.98,9.46-.53,12.48,3.48.35.47,1.16.95,1.68.89,5.61-.72,9.43,2.08,10.3,7.65.03.16.1.32.18.52.72.11,1.46.16,2.16.35,3.21.87,5.36,4.03,4.99,7.26Z"/>
    </g>
  </g>
  <g>
    <path class="st1" d="M737.77,22.18c-2.35.03-4.11-2.34-4.11-4.59-.04-1.33.58-2.61,1.48-3.55,1.07-1.05,2.48-1.62,3.88-2.08,1.34-.47,2.66-1.09,3.81-1.91,1.23-.92,3.16-2.62,2.48-4.3,0,0,.44-.38.44-.38,2.45.97,5.27.82,7.88.95,10.84.18,22.1-1.33,32.94-1.66,3.23.07,8.1-.24,10.29,2.62.82,1.26-.01,2.53-1.15,3.19-4.13,2.17-8.71,3-13.11,4.26-10.54,2.81-21.41,5.04-31.41,9.37-1.8.83-3.58,1.73-5.1,2.99-2.53,2.53-5.93,4.78-9.71,4.21-6.81-1.08-8.47-8.79-4.29-13.69.24-.29.67.05.46.35-1.55,2.18-2.29,4.98-1.51,7.44,1.16,3.87,5.59,5.52,9.16,3.84,2.57-.96,4.15-3.43,6.4-4.88,3.53-2.35,7.52-3.84,11.46-5.27,7.82-2.74,15.89-4.77,23.86-6.9,2.65-.71,5.3-1.42,7.88-2.23,1.68-.58,3.38-1.01,4.77-2,.01-.01,0-.02.02-.02,0,0-.03.03-.04.05,0,.02-.07.14-.07.26-.04.18.03.4.13.54-.53-.63-1.29-.85-2.17-1.06-1.9-.41-3.87-.44-5.86-.44-5.45.04-10.96.46-16.44.61-5.53.17-11.07.19-16.59-.27-2.42-.25-4.89-.48-7.21-1.3-.38-.16-.72-.27-1.04-.57,0,0,.44-.38.44-.38.82.97.39,2.26-.09,3.24-1.31,2.34-3.71,3.77-6.11,4.73-1.15.44-2.41.9-3.29,1.79-1.99,1.91-1.2,5.63,1.55,6.45.34.07.28.57-.05.58h0Z"/>
    <path class="st3" d="M723.89,91.42"/>
    <path class="st1" d="M738.94,32.33c-1.72,6.58-1.18,13.61,1.13,19.92,1.52,3.82,3.28,7.58,4.83,11.39,5.06,12.58,12.11,30.14,10.54,43.8-.28,1.87-.86,3.78-1.72,5.47-2.36,5.24-6.06,10.09-10.7,13.66-2.26,1.74-4.86,3.27-7.45,4.47-1.08.58-2.82,1.18-3.96,1.67,0,0-2.02.68-2.02.68-6.06,2.02-12.4,3.06-18.65,3.74.09-.02-.02,0-.05,0-.19.03-.35.12-.53.22-.89.66-1.22,1.78-1.5,2.92-.37,1.87-.29,3.84-.24,5.75-2.33-.98-4.17-2.7-6.07-4.31-3.53-3.02-6.58-6.61-9.05-10.55-1.24-1.97-2.4-3.98-3.41-6.08-.07-.14,0-.32.13-.39.15-.07.32,0,.39.14,2.02,4.12,4.5,8.06,7.45,11.58,1.47,1.76,3.16,3.33,4.88,4.87,1.7,1.47,3.47,3.05,5.48,4.03,0,0-.38.32-.38.32-.93-3.41-1.84-9.76,2.76-10.87,9.77-2.35,21.17-5.11,29.67-11.51,4.12-3.15,7.36-7.29,9.57-12.09.86-1.64,1.35-3.43,1.54-5.28.63-5.91-.57-11.95-1.9-17.75-1.89-7.99-4.53-15.76-7.31-23.5-1.38-3.89-2.98-7.78-4.26-11.71-2.05-6.74-2.1-14.18.3-20.79.05-.15.22-.23.37-.17.15.06.22.22.17.37h0Z"/>
    <path class="st1" d="M748.7,70.22c7.93,4.8,11.44,15.87,7.88,24.39-.1.28-.55.22-.56-.08-.05-.57-.08-1.14-.09-1.69-.12-5.8-1.76-11.4-4.43-16.55-.96-1.88-2.03-3.73-3.17-5.64-.18-.24.12-.58.39-.43h0Z"/>
    <path class="st1" d="M711.92,66.32c-6.82-1.31-14.4-1.53-20.8,1.6-.31.17-.61-.3-.3-.5,1.55-1.01,3.23-1.83,4.98-2.45,4.42-1.5,9.13-1.99,13.78-1.9,1.59.15,4.35-.37,4.25,1.88-.09.94-1.01,1.59-1.92,1.37h0Z"/>
    <path class="st1" d="M750.18,121.36c2.72.97,4.01,1.99,6.56,3.37.94.59,2.01,1.03,2.38,2.25,0,0-.24.12-.24.12l-9.67,4.76.07-.5c.62.59,1.19,1.2,1.74,1.84,1.59,1.95,3.3,4.19,3.21,6.85,0,0-.28-.33-.28-.33,4.75-.14,9.6.65,13.89,2.8,1.41.76,2.81,1.72,3.76,3.09l-.53.25c-2.06-6.1-4.1-12.19-8.31-17.19-.23-.24.06-.64.35-.5,1.62.67,2.99,1.85,4.13,3.18,3.16,4.07,4.59,9.34,4.44,14.44,0,0-.06.9-.06.9,0,0-.47-.65-.47-.65-3.83-2.46-8.39-3.46-12.74-4.59,0,0-4.51-1.1-4.51-1.1l-.32-.08c.31-3.28-2.85-6.6-5.05-8.76,0,0,.4-.2.4-.2l9.67-4.76-.16.35c-.3-.69-1.32-1.22-2-1.63-2.5-1.35-3.78-2.37-6.46-3.32-.37-.12-.19-.72.2-.58h0Z"/>
    <path class="st1" d="M773.45,144.66c2.5-1.47,5.71-1.14,8.03.5,0,0-.46.13-.46.13.69-5.03,7.12-12.24,12.52-9.04.02,0-.34.51-.33.51-6.78-3.96-13.41-7.87-20.57-11.03-6.35-2.76-12.87-4.71-19.65-6.23-.17-.03-.28-.21-.24-.38.03-.14.16-.23.3-.24,3.75-.01,7.55.29,11.25,1.1,5.56,1.12,10.99,3.17,16.03,5.75,5.57,2.96,10.73,6.83,14.42,12.03,0,0-1.46-.95-1.46-.95-1.25-.34-2.53-.32-3.7.19-3.72,1.63-5.31,5.67-8.01,8.53l-.31.33s-.15-.2-.15-.2c-2.11-1.51-5.08-1.81-7.35-.49-.34.23-.7-.3-.33-.52h0Z"/>
    <path class="st1" d="M794.41,136.43c-.32-2.31,1.08-3.79,3.4-3.55,0,0-.33.32-.33.32-1.69-3.14.29-11.73,4.31-12.33,0-.02.07.6.08.6-8.16.97-16.3-.38-24.43-1.06-8.11-.82-16.2-1.75-24.26-3.02-.17-.03-.28-.19-.26-.35.02-.15.16-.26.31-.26,6.12.06,12.22.33,18.33.68,6.1.33,12.19.81,18.28,1.29,4.54.4,9.08,1.07,13.44,2.53l-1.28.18c-1.8,1.12-2.23,3.34-2.64,5.3-.45,2.3-.24,4.65-1.45,6.82,0,0-.14-.09-.14-.09-1.94-.2-3,.94-2.74,2.85.05.39-.55.49-.61.09h0Z"/>
    <path class="st1" d="M703.25,143.11c3.39,4.84,6.87,9.68,10.62,14.24,0,0,.39.48.39.48l-.25.47-2.27,4.28s-.05.1-.08.13l-7.45,7.29c-.65,3.71-2.67,8.83-4.42,12.78,0,0-.33-.45-.33-.45,1.16-.41,2.34-.61,3.51-.72,1.18-.1,2.36-.11,3.53-.02,2.44.22,4.87.43,6.58,2.57l-.41.45c-1.59-2.86-2.58-6.06-2.79-9.33,0-.55-.03-3.79.84-3.54.13.04.21.15.23.28l.61,3.07c.53,2.89,1.34,6.4,1.75,9.3,0,0,.03.24.03.24-1.32.69-2.8.81-4,.69-3.34-.54-6.62-1.23-9.87-2.29,0,0-.45.06-.45.06l.12-.51c1.16-4.47,2.53-8.91,4.58-13.04-.09.13,7.84-7.75,7.37-7.17,0,0,1.04-4.73,1.04-4.73l.15.95c-1.74-2.45-3.37-4.95-4.96-7.47-1.59-2.52-3.14-5.06-4.66-7.62-.1-.16-.04-.37.12-.47.15-.09.35-.04.45.1h0Z"/>
    <path class="st1" d="M716.11,184.41c4.62-1.18,9.82.57,13.16,3.88,0,0-.52.37-.52.37-1.79-3.41-3.39-6.84-5.22-10.19-1.84-3.33-3.79-6.39-6.28-9.33-.25-.26.07-.72.4-.55,7.03,3.38,11.15,12.42,11.77,19.9,0,0,.05.94.05.94l-.57-.57c-3.03-1.14-6.37-2.08-9.52-2.81-1.08-.29-2.17-.56-3.27-.96-.32-.1-.3-.59.01-.67h0Z"/>
    <path class="st1" d="M731.57,187.4c.05-3.89,5.22-6.89,8.65-7.53,0,0-.14.23-.14.23-.34-2.86-1.06-5.56-2.46-8-1.5-2.29-4.09-3.71-6.47-5.18-2.95-1.86-6.48-3.37-8.71-6.24,0,0-.99-1.09-.99-1.09-3.79-4.05-8.54-9-12.31-13.03-.13-.14-.12-.35.02-.48.13-.12.32-.12.45,0,4.53,3.93,8.99,7.94,13.26,12.16.59.57,1.54,1.62,2.07,2.14,3.8,3.11,8.53,4.62,12.52,8.01.8.73,1.61,1.48,2.22,2.54,1.58,2.88,2.1,6.4.99,9.52-1.11,1.59-2.37,3.03-3.86,4.26-1.33,1.17-2.81,2.1-4.43,2.79-.05,0-.1.07-.13,0-.05.43-.73.37-.68-.08h0Z"/>
    <path class="st1" d="M738.59,24.45c8.19-5.33,17.42-8.9,26.83-11.42,4.7-1.32,9.68-1.44,14.5-1.93,2.4-.25,4.8-.52,7.19-.84,2.39-.33,4.78-.71,7.13-1.18.16-.04.32.07.35.23.03.15-.06.29-.2.33-2.35.69-4.72,1.2-7.1,1.68-3.58.72-7.18,1.27-10.8,1.72-3.47.34-7.22.89-10.57,1.87-9.29,2.55-17.98,6.77-27.05,10.04-.15.06-.32-.02-.38-.17-.05-.13,0-.27.11-.34h0Z"/>
    <path class="st1" d="M707.09,89.59c5.02-2.35,11.03-2.62,9.21,4.85-.08.42-.21,1.28-.25,1.71-.33,2.39-.01,4.29.57,6.69,1.01,4.08-1.17,7.98-3.11,11.4-1.78,3.2-3.53,6.76-5.99,9.55-6.79,8.01-15.27,5.24-22.01-1.06-1.88-1.71-3.58-3.55-5.17-5.46-4.72-5.7-8.94-12.04-11.35-19.12-.79-2.37-1.42-4.81-1.71-7.29-.33-2.47-.37-4.95-.44-7.32-.05-2.32-.4-4.64-2.49-5.99,0,0-.17-.12-.17-.12.22-1.6.59-3.37,1.98-4.37.47-.32,1.06-.44,1.62-.41,0,0-.29.41-.29.39-1-1.08-1.87-2.38-3.25-1.92,0,0-.16.06-.16.06-.07.02-.12.04-.22.05-.4.08-.89-.08-1.11-.48-.8-1.64,2.82-3.46,3.97-3.9,3.39-1.38,7.4-.9,10.49.93,2.03,1.13,3.62,2.79,5.46,4.17,3.5,2.77,7.31,5.14,11.14,7.51,3.77,2.47,7.97,4.69,10.58,8.54.19.32-.27.63-.48.32-2.72-3.54-6.94-5.55-10.71-7.82-3.9-2.26-7.82-4.56-11.47-7.3-1.8-1.27-3.38-2.91-5.32-3.96-3.73-2.18-9.05-1.99-12.05,1.25,0,0,0,.04.03-.09.01-.19.03-.28-.09-.5-.1-.2-.37-.37-.56-.39-.04,0-.09,0-.12,0-.01,0-.03,0-.04,0-.03,0,0,0-.01,0h.04s.13-.05.13-.05c2.2-.82,4.07,1.41,4.3,3.39,0,0,.18.42.17.42-2.41-.4-3.18,2.16-3.41,4.08,0,0-.15-.28-.15-.28,1.13.52,2.2,1.46,2.76,2.66,1.48,3.42,1.25,7.27,2.21,10.73,2.11,9.2,7.72,17.12,13.91,24.07,3.71,4.03,10.01,10.74,15.87,9.5,3.97-1.02,6.54-5.25,8.72-8.74,0,0,1.87-3.1,1.87-3.1.84-1.42,1.93-2.97,2.57-4.46.66-1.43.98-2.67.74-4.31-.25-1.54-.45-3.58-.27-5.29.08-.75.22-1.66.39-2.39.67-3.52,3.07-6.33-2.61-6.11-1.16.06-2.35.27-3.5.54-.34.08-.5-.4-.19-.54h0Z"/>
    <path class="st1" d="M697.39,127.69s22.71-12.15,16-31.98c0,0-4.97,33.43-21.73,22.12-17.21-11.6-16.84-21.32-24.82-34.29,0,0,3.98,32.19,30.55,44.15Z"/>
    <path class="st1" d="M691.13,67.92s20.87-.01,24.86,3.97l-2.91-7.23s-14.92-2.04-21.95,3.26Z"/>
    <path class="st1" d="M743.48,5.4c-10.2-.97-23.2-.34-29.56,8.83-5.5,8.81-4.84,21.59-3.75,31.66.52,4.38,1.33,8.78,2.5,12.97,1.43,4.3,3.19,8.47,4.09,12.94.93,4.49,1.2,9.42-.83,13.66,0,0-.76,2.36-.76,2.36.3-3.18.56-6.7-.72-9.69-.23-.54-.53-1.06-.89-1.51-.3-.41-.78-.62-1.36-.77-1.14-.28-2.4-.35-3.64-.45-27.89-.97-42.58-24.54-55.03-46.34-2.49-4.35-4.91-8.74-7.47-13.04-1.28-2.14-2.6-4.27-4.05-6.3-1.46-1.92-2.97-4.08-5.16-5.15,0,0,.39-.37.39-.37,1.71,2.88,3.34,5.77,4.94,8.69,4.5,8.49,9.73,17.91,14.11,26.47,0,0-.48.32-.48.32l-6.76-9.26s.52-.22.52-.22c1.64,6.1,3.61,12.14,6.01,17.99,2.47,5.8,5.48,11.37,9.58,16.2.25.26-.16.66-.41.4-4.72-4.42-8.07-10.1-10.62-15.99-2.66-6.3-4.54-12.94-5.28-19.75l.67,1.02s6.76,9.26,6.76,9.26l-.48.32c-5.95-8.1-11.27-16.7-15.63-25.76-1.52-3.3-2.9-6.69-3.64-10.27l.56.41c1.23.55,2.17,1.46,3.04,2.38,2.56,2.79,4.53,6.06,6.51,9.26,9,14.94,16.71,31.01,28.98,43.63,9.07,9.17,20,14.76,33.01,15.2,1.25.1,2.51.16,3.81.47.67.17,1.42.51,1.82,1.08,1.98,2.64,2.08,6.18,1.69,9.33,0,0-.56-.14-.55-.15.66-2.12.79-4.33.61-6.5-.53-6.05-3.19-11.76-5.59-17.29-1.97-4.85-2.97-9.97-3.79-15.1-1.43-10.98-2.02-24.47,4.53-34.06,2.8-3.96,7.28-6.63,11.9-7.84,6.74-1.75,13.85-1.37,20.53.37.15.04.24.2.2.36-.04.14-.18.23-.32.21h0Z"/>
    <path class="st1" d="M737.38,31.39s-7.33,4.2-3.93,16.43c9.88,35.57,27.58,64.87-9.56,84.33,0,0,42.57-5.79,26.63-46.97-15.94-41.18-15.54-38.69-11.76-53.22l-1.38-.57Z"/>
  </g>
  <g>
    <path class="st2" d="M164.77,182.97c-50.72-.22-89.08-15.31-121.93-44.69-1.18-1.06-2.92-2.19-1.62-4.04,1.41-2,3.04-.54,4.45.28,24.87,14.48,51.56,23.74,79.96,28.27,15.35,2.45,30.79,3.36,46.28,2.57,26.76-1.38,52.52-7.31,77.22-17.76,1.07-.45,2.12-1.02,3.34-1.05,1.65-.04,2.96.5,3.66,2.07.69,1.53.1,2.8-.98,3.89-.5.51-1.09.93-1.67,1.36-15.71,11.49-33.3,18.89-52.04,23.68-14.16,3.62-28.52,5.86-36.67,5.41Z"/>
    <path class="st1" d="M162,59.03c-3.16,13.18-6.31,26.36-9.47,39.54-.85,3.55-1.67,7.11-2.59,10.64-.76,2.91-1.7,3.6-4.71,3.66-2.09.04-4.18.03-6.27,0-3.11-.04-4-.65-4.93-3.69-3.79-12.33-7.53-24.67-11.29-37.01-2.43-7.97-4.88-15.94-7.29-23.93-1.35-4.48-.93-5.02,3.67-5.02,1.44,0,2.87,0,4.31,0,4.03,0,4.87.62,5.87,4.51,1.77,6.88,3.49,13.77,5.24,20.65,2.36,9.28,4.72,18.57,7.09,27.85.14.56.34,1.1.55,1.76.83-.55.72-1.43.88-2.09,3.83-16.1,7.62-32.22,11.43-48.32.87-3.7,1.69-4.33,5.54-4.35,1.63,0,3.27,0,4.9,0,3.8.02,4.64.64,5.52,4.39,2.54,10.72,5.05,21.44,7.57,32.16,1.48,6.28,2.96,12.56,4.46,18.91.93-.32.78-1.19.93-1.78,4.23-16.2,8.43-32.41,12.62-48.62,1.19-4.59,1.76-5.06,6.41-5.06,1.83,0,3.66.02,5.49,0,1.8-.03,2.5.89,2.25,2.59-.11.77-.3,1.54-.53,2.28-6.33,20.2-12.67,40.4-19.01,60.59-1.15,3.68-1.86,4.18-5.75,4.18-1.83,0-3.66.02-5.49,0-3.18-.05-4.14-.78-4.91-3.92-3.02-12.34-6.01-24.69-9.01-37.04-1.05-4.3-2.1-8.59-3.15-12.89-.11,0-.21.01-.32.02Z"/>
    <path class="st1" d="M95.18,103.83c-4.45,5.13-9.73,8.68-16.3,10.06-4.66.98-9.33,1.04-13.97-.17-8.42-2.2-13.87-9.16-14.28-18.18-.57-12.41,7.28-21.59,19.91-23.4,7.36-1.05,14.58-.2,21.75,1.4,1.68.37,2.34.23,2.18-1.71-.19-2.4-.02-4.82-.27-7.23-.85-8.2-4.75-11.88-13.05-12.46-7.2-.51-13.98,1.09-20.59,3.74-4.75,1.91-5.04,1.54-5.35-3.46-.23-3.77,1.26-5.69,4.64-7.06,9.88-3.98,19.99-5.47,30.45-3.09,10.14,2.3,15.89,9.1,16.74,19.52.74,9.12.34,18.27.28,27.41-.04,5.66.5,11.05,3.55,15.97.9,1.46.53,2.8-.84,3.76-1.76,1.24-3.55,2.44-5.38,3.57-1.53.94-2.98.7-4.26-.58-1.45-1.44-2.56-3.12-3.52-4.91-.55-1.02-1.09-2.05-1.7-3.19ZM80.85,80.98c-1.56.07-3.13.09-4.69.22-8.94.77-13.57,7.15-11.49,15.75.92,3.8,3.31,6.21,7.11,6.94,6.05,1.17,11.67-.1,16.67-3.69,3.21-2.31,5.16-5.5,5.61-9.47.24-2.13.18-4.3.4-6.43.13-1.31-.5-1.68-1.58-1.89-3.98-.74-7.97-1.36-12.03-1.43Z"/>
    <path class="st1" d="M237.74,114.89c-4.73-.08-11.01-1.08-17.02-3.49-4.84-1.95-6.53-5.57-5-10.51.44-1.41,1.53-1.54,2.67-1.2,1.18.34,2.29.92,3.45,1.36,7.84,2.98,15.87,4.3,24.17,2.46,5.18-1.15,8.15-4.3,8.42-8.52.22-3.57-1.35-6.14-4.42-7.88-3.32-1.89-7.01-2.79-10.59-3.96-4.08-1.33-8.29-2.33-12.13-4.33-8.73-4.56-12.95-13.83-10.01-22.67,2.5-7.52,8.28-11.68,15.66-13.71,8.97-2.46,17.72-1.17,26.29,1.99,3,1.1,4.5,3.1,4.35,6.57-.24,5.35-.43,5.57-5.49,3.54-7.02-2.82-14.28-3.67-21.67-1.91-5.58,1.33-8.18,5.71-6.68,10.66.71,2.35,2.39,3.82,4.45,4.96,3.22,1.79,6.76,2.72,10.21,3.87,3.83,1.27,7.72,2.35,11.45,3.93,15.03,6.4,14.51,24.76,3.71,32.98-5.01,3.81-11.86,5.87-21.82,5.85Z"/>
    <path class="st2" d="M253.17,138.9c-5.36.21-10.68.72-16,1.33-1.26.14-3.05.96-3.69-.69-.65-1.69,1.08-2.44,2.26-3.2,6.85-4.37,14.51-6.04,22.48-6.49,5.3-.3,10.58-.02,15.7,1.53,3.25.98,4.13,1.95,4.02,5.33-.41,13.15-4.82,24.71-14.05,34.26-.67.7-1.46,1.32-2.27,1.85-.71.47-1.56.81-2.34.1-.71-.65-.46-1.41-.16-2.17,1-2.55,2.05-5.07,2.98-7.65,1.96-5.45,4.08-10.88,4.58-16.73.41-4.75-.6-6-5.33-6.91-.58-.11-1.16-.23-1.74-.27-2.15-.12-4.3-.2-6.45-.3Z"/>
  </g>
  <path class="st0" d="M316.76,54c8.37-10.87,20.54-18.09,33.07-23.26,25.59-10.07,53.97-10.37,80.8-6.04,19.99,2.93,39.08,10,58.4,15.44,31.35,8.35,64.92,12.99,96.8,4.99,12.55-3.26,25.12-8.48,34.92-17.17.2-.22.56-.23.76-.01.18.19.18.48.02.67-4.33,5.32-9.83,9.43-15.62,13.01-41.32,24.33-95.31,16.38-138.85,2.2-44.64-14.47-100.72-23.33-141.92,4.52-2.69,1.87-5.3,3.95-7.58,6.27-.19.23-.55.25-.76.04-.18-.18-.2-.47-.05-.67h0Z"/>
</svg>